<svg xmlns="http://www.w3.org/2000/svg" version="1.1" xmlns:xlink="http://www.w3.org/1999/xlink" xmlns:svgjs="http://svgjs.dev/svgjs" viewBox="0 0 25.440533596382107 8.245920806778456"><g transform="matrix(0.7460261738512566,0,0,0.7460261738512566,10.468197175113167,3.1558097402766654)"><rect width="28.24773812997882" height="28.24773812997882" x="-11.105114895210232" y="-12.827465939989409" fill="#225777"></rect><g transform="matrix(1,0,0,1,0,0)" clip-path="url(#SvgjsClipPath29960)"><g clip-path="url(#SvgjsClipPath2995550243d57-0eb7-42e4-b48f-d2e12263df8c)"><path d=" M -1.0752080879471206 -1.4229550115908702 L -7.6227022736663965 -1.4229550115908702 C -7.995433310198745 -1.4229550115908702 -8.297910361613518 -1.120477960176098 -8.297910361613518 -0.7473038555468314 L -8.297910361613518 -0.371914410432975 L -0.40005538351211545 -0.371914410432975 L -0.40005538351211545 -0.7473038555468314 C -0.40005538351211545 -1.120477960176098 -0.702532434926888 -1.4229550115908702 -1.0752634714592366 -1.4229550115908702 Z" fill="#3a868f" transform="matrix(1,0,0,1,0,0)" fill-rule="nonzero"></path></g><g clip-path="url(#SvgjsClipPath2995550243d57-0eb7-42e4-b48f-d2e12263df8c)"><path d=" M -8.29788266985746 -0.21620366612232167 L -8.29788266985746 3.3405531736437517 C -8.29788266985746 3.7132842101760994 -7.995405618442688 4.015761261590872 -7.622674581910339 4.015761261590872 L -1.0752080879471206 4.015761261590872 C -0.7024770514147729 4.015761261590872 -0.40000000000000036 3.7132842101760994 -0.40000000000000036 3.3405531736437517 L -0.40000000000000036 -0.21620366612232167 L -8.29788266985746 -0.21620366612232167 Z" fill="#3a868f" transform="matrix(1,0,0,1,0,0)" fill-rule="nonzero"></path></g><g clip-path="url(#SvgjsClipPath2995550243d57-0eb7-42e4-b48f-d2e12263df8c)"><path d=" M -7.299179487648015 -0.8569909012901177 C -7.299179487648015 -0.7709024615949228 -7.368967942799817 -0.7011140064431203 -7.4550563824950125 -0.7011140064431203 C -7.5411448221902075 -0.7011140064431203 -7.61093327734201 -0.7709024615949228 -7.61093327734201 -0.8569909012901177 C -7.61093327734201 -0.9430793409853127 -7.5411448221902075 -1.012867796137115 -7.4550563824950125 -1.012867796137115 C -7.368967942799817 -1.012867796137115 -7.299179487648015 -0.9430793409853127 -7.299179487648015 -0.8569909012901177 Z" fill="#ececd9" transform="matrix(1,0,0,1,0,0)" fill-rule="nonzero"></path></g><g clip-path="url(#SvgjsClipPath2995550243d57-0eb7-42e4-b48f-d2e12263df8c)"><path d=" M -6.56385259730032 -1.012867796137115 C -6.6499462668827185 -1.012867796137115 -6.719729492147318 -0.9430845708725148 -6.719729492147318 -0.8569909012901177 C -6.719729492147318 -0.7708972317077205 -6.649946266882718 -0.7011140064431203 -6.56385259730032 -0.7011140064431203 C -6.4777589277179235 -0.7011140064431203 -6.407975702453323 -0.7708972317077205 -6.407975702453323 -0.8569909012901177 C -6.407975702453323 -0.9430845708725148 -6.4777589277179235 -1.012867796137115 -6.56385259730032 -1.012867796137115 Z" fill="#ececd9" transform="matrix(1,0,0,1,0,0)" fill-rule="nonzero"></path></g><g clip-path="url(#SvgjsClipPath2995550243d57-0eb7-42e4-b48f-d2e12263df8c)"><path d=" M -5.516744225502573 -0.8569909012901177 C -5.516744225502573 -0.7709024615949228 -5.586532680654376 -0.7011140064431203 -5.67262112034957 -0.7011140064431203 C -5.758709560044766 -0.7011140064431203 -5.828498015196567 -0.7709024615949228 -5.828498015196567 -0.8569909012901177 C -5.828498015196567 -0.9430793409853127 -5.758709560044766 -1.012867796137115 -5.67262112034957 -1.012867796137115 C -5.586532680654376 -1.012867796137115 -5.516744225502573 -0.9430793409853127 -5.516744225502573 -0.8569909012901177 Z" fill="#ececd9" transform="matrix(1,0,0,1,0,0)" fill-rule="nonzero"></path></g><g clip-path="url(#SvgjsClipPath2995550243d57-0eb7-42e4-b48f-d2e12263df8c)"><path d=" M -5.385623760570874 3.0224025883004995 L -5.385623760570874 2.2395566445583395 L -5.854999025743481 1.8717547406042057 L -5.385623760570874 1.503952836650071 L -5.385623760570874 0.721494577492714 L -6.854671419414935 1.8717547406042057 L -5.385623760570874 3.0224025883004995 Z" fill="#ececd9" transform="matrix(1,0,0,1,0,0)" fill-rule="nonzero"></path></g><g clip-path="url(#SvgjsClipPath2995550243d57-0eb7-42e4-b48f-d2e12263df8c)"><path d=" M -3.3123142927987024 0.721494577492714 L -3.3123142927987024 1.503952836650071 L -2.842966719382151 1.8717547406042057 L -3.3123142927987024 2.2395566445583395 L -3.3123142927987024 3.0224025883004995 L -1.8432389421985826 1.8717547406042057 L -3.3123142927987024 0.721494577492714 Z" fill="#ececd9" transform="matrix(1,0,0,1,0,0)" fill-rule="nonzero"></path></g><g clip-path="url(#SvgjsClipPath2995550243d57-0eb7-42e4-b48f-d2e12263df8c)"><path d=" M -3.6200527778643767 0.2756849967249373 L -4.654561400656016 3.468212169068278 L -5.077857583749141 3.468212169068278 L -4.042905892860585 0.2756849967249373 L -3.6200527778643767 0.2756849967249373 Z" fill="#ececd9" transform="matrix(1,0,0,1,0,0)" fill-rule="nonzero"></path></g></g><g><path d=" M 1.008 0.07050000000000001 L 0.9825 0.8880000000000001 L 1.0170000000000001 0.8880000000000001 L 1.278 0.07050000000000001 L 1.572 0.07050000000000001 L 1.2015 1.1505 L 0.7515000000000001 1.1505 L 0.792 0.4590000000000001 L 0.591 1.1505 L 0.14100000000000001 1.1505 L 0.1515 0.07050000000000001 L 0.4455 0.07050000000000001 L 0.4185 0.8880000000000001 L 0.453 0.8880000000000001 L 0.7155 0.07050000000000001 L 1.008 0.07050000000000001 M 1.836 1.1715 Q 1.524 1.1715 1.524 0.9555 Q 1.524 0.9255000000000001 1.53 0.891 L 1.5615 0.7050000000000001 Q 1.587 0.561 1.69425 0.48375 Q 1.8014999999999999 0.4065000000000001 1.9785 0.4065000000000001 Q 2.2800000000000002 0.4065000000000001 2.2800000000000002 0.6345000000000001 Q 2.2800000000000002 0.6675000000000001 2.274 0.7065000000000001 L 2.2560000000000002 0.8130000000000001 L 1.7985 0.8130000000000001 L 1.7925 0.8475000000000001 Q 1.7894999999999999 0.8655 1.7894999999999999 0.8805000000000001 Q 1.7894999999999999 0.9630000000000001 1.887 0.9630000000000001 Q 1.923 0.9630000000000001 1.9485000000000001 0.9405000000000001 Q 1.974 0.918 1.9785 0.8880000000000001 L 2.2275 0.891 Q 2.178 1.1715 1.836 1.1715 M 2.016 0.7215 Q 2.0220000000000002 0.6960000000000001 2.0220000000000002 0.67425 Q 2.0220000000000002 0.6525000000000001 2.0025 0.6300000000000001 Q 1.983 0.6075 1.94025 0.6075 Q 1.8975 0.6075 1.86225 0.6360000000000001 Q 1.827 0.6645000000000001 1.8135 0.7215 L 2.016 0.7215 M 2.8755029296875 0.40800000000000003 Q 3.0240029296875 0.40800000000000003 3.0840029296875002 0.49050000000000005 Q 3.1290029296875 0.549 3.1290029296875 0.6330000000000001 Q 3.1290029296875 0.6675000000000001 3.1215029296875 0.7050000000000001 L 3.0915029296875 0.873 Q 3.0660029296875 1.0170000000000001 2.9587529296875 1.0942500000000002 Q 2.8515029296875 1.1715 2.6887529296875 1.1715 Q 2.5260029296875 1.1715 2.4390029296875 1.107 Q 2.3700029296875 1.056 2.3700029296875 0.9645000000000001 Q 2.3700029296875 0.9405000000000001 2.3745029296875 0.915 L 2.5335029296875 0.01200000000000001 L 2.7885029296875 0.01200000000000001 L 2.7120029296875 0.4485 Q 2.7750029296875 0.40800000000000003 2.8755029296875 0.40800000000000003 M 2.8620029296875 0.7275 Q 2.8635029296875 0.7155 2.8635029296875 0.6937500000000001 Q 2.8635029296875 0.672 2.8447529296875 0.6472500000000001 Q 2.8260029296875 0.6225 2.7637529296875 0.6225 Q 2.7015029296875 0.6225 2.6745029296875 0.6600000000000001 L 2.6310029296875 0.9105000000000001 Q 2.6490029296875 0.9555 2.7060029296875 0.9555 Q 2.8215029296875 0.9555 2.8425029296875 0.8400000000000001 L 2.8620029296875 0.7275 M 3.867013916015625 1.1775 Q 3.867013916015625 1.3965 3.755263916015625 1.53675 Q 3.643513916015625 1.677 3.452263916015625 1.677 Q 3.261013916015625 1.677 3.198013916015625 1.5825 Q 3.159013916015625 1.5225 3.159013916015625 1.43625 Q 3.159013916015625 1.35 3.174013916015625 1.2645000000000002 L 3.366013916015625 0.1785000000000001 L 3.621013916015625 0.1785000000000001 L 3.576013916015625 0.42900000000000005 L 3.949513916015625 0.42900000000000005 L 3.912013916015625 0.6405000000000001 L 3.618013916015625 0.6405000000000001 Q 3.724513916015625 0.7260000000000001 3.795763916015625 0.8625 Q 3.867013916015625 0.9990000000000001 3.867013916015625 1.1775 M 3.570013916015625 1.3875000000000002 Q 3.603013916015625 1.3125 3.603013916015625 1.19025 Q 3.603013916015625 1.068 3.578263916015625 0.9435 Q 3.553513916015625 0.8190000000000001 3.519013916015625 0.7485 L 3.429013916015625 1.2630000000000001 Q 3.420013916015625 1.3155000000000001 3.420013916015625 1.3545 Q 3.420013916015625 1.4625000000000001 3.490513916015625 1.4625000000000001 Q 3.537013916015625 1.4625000000000001 3.570013916015625 1.3875000000000002 M 4.27348681640625 0.9195000000000001 Q 4.27348681640625 0.9585000000000001 4.31323681640625 0.9585000000000001 Q 4.35298681640625 0.9585000000000001 4.37998681640625 0.9435 L 4.37248681640625 1.113 Q 4.30048681640625 1.1715 4.21048681640625 1.1715 Q 4.07398681640625 1.1715 4.03348681640625 1.1085 Q 4.00798681640625 1.068 4.00798681640625 1.02 Q 4.00798681640625 0.9720000000000001 4.01398681640625 0.936 L 4.17748681640625 0.01200000000000001 L 4.43248681640625 0.01200000000000001 L 4.27498681640625 0.9015000000000001 Q 4.27348681640625 0.9105000000000001 4.27348681640625 0.9195000000000001 M 5.17644140625 0.9195000000000001 Q 5.17644140625 0.9585000000000001 5.21619140625 0.9585000000000001 Q 5.25594140625 0.9585000000000001 5.28294140625 0.9435 L 5.27544140625 1.113 Q 5.2034414062500005 1.1715 5.11344140625 1.1715 Q 4.94844140625 1.1715 4.93044140625 1.0515 Q 4.85544140625 1.1715 4.70994140625 1.1715 Q 4.46394140625 1.1715 4.46394140625 0.9600000000000001 Q 4.46394140625 0.924 4.47144140625 0.8805000000000001 L 4.50294140625 0.7050000000000001 Q 4.52694140625 0.5700000000000001 4.61319140625 0.48975 Q 4.69944140625 0.4095000000000001 4.83819140625 0.4095000000000001 Q 4.97694140625 0.4095000000000001 5.02644140625 0.4740000000000001 L 5.03394140625 0.42900000000000005 L 5.26194140625 0.42900000000000005 L 5.1779414062499995 0.9015000000000001 Q 5.17644140625 0.9105000000000001 5.17644140625 0.9195000000000001 M 4.73244140625 0.8475000000000001 Q 4.72944140625 0.8610000000000001 4.72944140625 0.885 Q 4.72944140625 0.909 4.75194140625 0.93225 Q 4.77444140625 0.9555 4.82769140625 0.9555 Q 4.88094140625 0.9555 4.91994140625 0.9135000000000001 L 4.96494140625 0.6615000000000001 Q 4.94844140625 0.6240000000000001 4.88694140625 0.6240000000000001 Q 4.77144140625 0.6240000000000001 4.75194140625 0.7350000000000001 L 4.73244140625 0.8475000000000001 M 6.103426025390625 0.5820000000000001 Q 6.103426025390625 0.6330000000000001 6.086176025390625 0.681 Q 6.068926025390625 0.7290000000000001 6.052426025390625 0.7515000000000001 L 6.035926025390625 0.7725000000000001 L 5.809426025390625 0.7725000000000001 Q 5.846926025390625 0.738 5.846926025390625 0.687 Q 5.846926025390625 0.6600000000000001 5.829676025390625 0.64275 Q 5.812426025390625 0.6255000000000001 5.782426025390625 0.6255000000000001 Q 5.731426025390625 0.6255000000000001 5.693926025390625 0.6765000000000001 L 5.609926025390625 1.1505 L 5.354926025390625 1.1505 L 5.482426025390625 0.42900000000000005 L 5.719426025390625 0.42900000000000005 L 5.701426025390625 0.5295000000000001 Q 5.786926025390625 0.40800000000000003 5.908426025390625 0.40800000000000003 Q 6.005926025390625 0.40800000000000003 6.054676025390625 0.4545 Q 6.103426025390625 0.5010000000000001 6.103426025390625 0.5820000000000001 M 6.4498916015625 1.1715 Q 6.1378916015625 1.1715 6.1378916015625 0.9555 Q 6.1378916015625 0.9255000000000001 6.1438916015625 0.891 L 6.1753916015625 0.7050000000000001 Q 6.2008916015625 0.561 6.3081416015625 0.48375 Q 6.4153916015625 0.4065000000000001 6.5923916015625 0.4065000000000001 Q 6.8938916015625 0.4065000000000001 6.8938916015625 0.6345000000000001 Q 6.8938916015625 0.6675000000000001 6.8878916015625 0.7065000000000001 L 6.8698916015625 0.8130000000000001 L 6.4123916015625 0.8130000000000001 L 6.4063916015625 0.8475000000000001 Q 6.4033916015625 0.8655 6.4033916015625 0.8805000000000001 Q 6.4033916015625 0.9630000000000001 6.5008916015625005 0.9630000000000001 Q 6.5368916015625 0.9630000000000001 6.5623916015625 0.9405000000000001 Q 6.5878916015625 0.918 6.5923916015625 0.8880000000000001 L 6.8413916015625 0.891 Q 6.7918916015625 1.1715 6.4498916015625 1.1715 M 6.6298916015625 0.7215 Q 6.6358916015625 0.6960000000000001 6.6358916015625 0.67425 Q 6.6358916015625 0.6525000000000001 6.6163916015625 0.6300000000000001 Q 6.5968916015625 0.6075 6.5541416015625 0.6075 Q 6.5113916015625 0.6075 6.4761416015625 0.6360000000000001 Q 6.4408916015625 0.6645000000000001 6.4273916015625 0.7215 L 6.6298916015625 0.7215 M 7.9408798828125 0.07050000000000001 Q 8.1373798828125 0.07050000000000001 8.2213798828125 0.1695000000000001 Q 8.2828798828125 0.24450000000000005 8.2828798828125 0.3570000000000001 Q 8.2828798828125 0.3975000000000001 8.2753798828125 0.4425000000000001 L 8.2168798828125 0.7770000000000001 Q 8.1868798828125 0.9465000000000001 8.0698798828125 1.0485 Q 7.9528798828125 1.1505 7.7668798828125 1.1505 L 7.3303798828125 1.1505 L 7.5208798828125 0.07050000000000001 L 7.9408798828125 0.07050000000000001 M 7.8463798828125 0.3045000000000001 L 7.7488798828125 0.3045000000000001 L 7.6423798828125005 0.9165000000000001 L 7.7848798828125 0.9165000000000001 Q 7.8553798828125 0.9165000000000001 7.8951298828125 0.8782500000000001 Q 7.9348798828125 0.8400000000000001 7.9498798828125 0.7530000000000001 L 7.9933798828125 0.5070000000000001 Q 7.9993798828125 0.4740000000000001 7.9993798828125 0.44700000000000006 Q 7.9993798828125 0.3045000000000001 7.8463798828125 0.3045000000000001 M 8.641389404296875 1.1715 Q 8.329389404296874 1.1715 8.329389404296874 0.9555 Q 8.329389404296874 0.9255000000000001 8.335389404296874 0.891 L 8.366889404296876 0.7050000000000001 Q 8.392389404296875 0.561 8.499639404296875 0.48375 Q 8.606889404296876 0.4065000000000001 8.783889404296875 0.4065000000000001 Q 9.085389404296874 0.4065000000000001 9.085389404296874 0.6345000000000001 Q 9.085389404296874 0.6675000000000001 9.079389404296876 0.7065000000000001 L 9.061389404296875 0.8130000000000001 L 8.603889404296876 0.8130000000000001 L 8.597889404296875 0.8475000000000001 Q 8.594889404296875 0.8655 8.594889404296875 0.8805000000000001 Q 8.594889404296875 0.9630000000000001 8.692389404296875 0.9630000000000001 Q 8.728389404296875 0.9630000000000001 8.753889404296874 0.9405000000000001 Q 8.779389404296875 0.918 8.783889404296875 0.8880000000000001 L 9.032889404296874 0.891 Q 8.983389404296876 1.1715 8.641389404296875 1.1715 M 8.821389404296875 0.7215 Q 8.827389404296875 0.6960000000000001 8.827389404296875 0.67425 Q 8.827389404296875 0.6525000000000001 8.807889404296875 0.6300000000000001 Q 8.788389404296876 0.6075 8.745639404296876 0.6075 Q 8.702889404296876 0.6075 8.667639404296875 0.6360000000000001 Q 8.632389404296875 0.6645000000000001 8.618889404296874 0.7215 L 8.821389404296875 0.7215 M 9.916392333984374 0.5850000000000001 Q 9.916392333984374 0.6345000000000001 9.886392333984375 0.6765000000000001 L 9.640392333984375 0.6765000000000001 Q 9.652392333984375 0.6675000000000001 9.652392333984375 0.6465000000000001 Q 9.652392333984375 0.6255000000000001 9.628392333984374 0.61275 Q 9.604392333984375 0.6000000000000001 9.566892333984375 0.6000000000000001 Q 9.454392333984375 0.6000000000000001 9.454392333984375 0.669 Q 9.454392333984375 0.6960000000000001 9.496392333984375 0.7080000000000001 Q 9.538392333984374 0.7200000000000001 9.598392333984375 0.7275 Q 9.658392333984375 0.7350000000000001 9.718392333984376 0.7492500000000001 Q 9.778392333984375 0.7635000000000001 9.820392333984374 0.8055000000000001 Q 9.862392333984374 0.8475000000000001 9.862392333984374 0.918 Q 9.862392333984374 1.0425 9.762642333984376 1.107 Q 9.662892333984376 1.1715 9.472392333984375 1.1715 Q 9.281892333984375 1.1715 9.205392333984374 1.11 Q 9.145392333984375 1.062 9.145392333984375 0.9780000000000001 Q 9.145392333984375 0.9540000000000001 9.149892333984376 0.9285000000000001 L 9.400392333984374 0.9255000000000001 Q 9.397392333984374 0.9465000000000001 9.425142333984375 0.96225 Q 9.452892333984375 0.9780000000000001 9.506892333984375 0.9780000000000001 Q 9.560892333984375 0.9780000000000001 9.584892333984374 0.9667500000000001 Q 9.608892333984375 0.9555 9.608892333984375 0.924 Q 9.608892333984375 0.903 9.566892333984375 0.89475 Q 9.524892333984376 0.8865000000000001 9.464142333984375 0.8805000000000001 Q 9.403392333984375 0.8745 9.342642333984376 0.8610000000000001 Q 9.281892333984375 0.8475000000000001 9.239892333984375 0.804 Q 9.197892333984376 0.7605000000000001 9.197892333984376 0.6900000000000001 Q 9.197892333984376 0.5535000000000001 9.303642333984374 0.4800000000000001 Q 9.409392333984375 0.4065000000000001 9.608892333984375 0.4065000000000001 Q 9.916392333984374 0.4065000000000001 9.916392333984374 0.5850000000000001 M 10.3064091796875 0.9585000000000001 Q 10.3409091796875 0.9585000000000001 10.3679091796875 0.9435 L 10.3604091796875 1.113 Q 10.2899091796875 1.1715 10.1999091796875 1.1715 Q 10.0634091796875 1.1715 10.0229091796875 1.1085 Q 9.9959091796875 1.0665 9.9959091796875 1.01925 Q 9.9959091796875 0.9720000000000001 10.0019091796875 0.936 L 10.0919091796875 0.42900000000000005 L 10.3469091796875 0.42900000000000005 L 10.2629091796875 0.9015000000000001 Q 10.2614091796875 0.9105000000000001 10.2614091796875 0.918 Q 10.2614091796875 0.9585000000000001 10.3064091796875 0.9585000000000001 M 10.1219091796875 0.1845000000000001 Q 10.1219091796875 0.08850000000000002 10.1646591796875 0.04425000000000012 Q 10.2074091796875 0 10.2974091796875 0 Q 10.4234091796875 0 10.4234091796875 0.11099999999999999 Q 10.4234091796875 0.20550000000000002 10.3806591796875 0.2490000000000001 Q 10.3379091796875 0.2925000000000001 10.2464091796875 0.2925000000000001 Q 10.1219091796875 0.2925000000000001 10.1219091796875 0.1845000000000001 M 10.9686416015625 1.476 Q 10.8508916015625 1.5870000000000002 10.6993916015625 1.5870000000000002 Q 10.5478916015625 1.5870000000000002 10.4811416015625 1.5315 Q 10.4143916015625 1.476 10.4143916015625 1.3860000000000001 Q 10.4143916015625 1.254 10.5823916015625 1.1565 Q 10.4548916015625 1.116 10.4548916015625 0.9630000000000001 Q 10.4548916015625 0.9255000000000001 10.4623916015625 0.8805000000000001 L 10.4923916015625 0.7050000000000001 Q 10.5163916015625 0.5700000000000001 10.6033916015625 0.48975 Q 10.6903916015625 0.4095000000000001 10.8291416015625 0.4095000000000001 Q 10.9678916015625 0.4095000000000001 11.0188916015625 0.4770000000000001 L 11.0278916015625 0.42900000000000005 L 11.2513916015625 0.42900000000000005 L 11.1193916015625 1.1745 Q 11.0863916015625 1.365 10.9686416015625 1.476 M 10.7233916015625 0.8475000000000001 Q 10.7203916015625 0.8610000000000001 10.7203916015625 0.885 Q 10.7203916015625 0.909 10.7428916015625 0.93225 Q 10.7653916015625 0.9555 10.8186416015625 0.9555 Q 10.8718916015625 0.9555 10.9108916015625 0.9135000000000001 L 10.9558916015625 0.6615000000000001 Q 10.9348916015625 0.6240000000000001 10.8763916015625 0.6240000000000001 Q 10.8178916015625 0.6240000000000001 10.7848916015625 0.6540000000000001 Q 10.7518916015625 0.684 10.7428916015625 0.7350000000000001 L 10.7233916015625 0.8475000000000001 M 10.7338916015625 1.3725 Q 10.8313916015625 1.3725 10.8613916015625 1.1955 L 10.8763916015625 1.1085 Q 10.6678916015625 1.2060000000000002 10.6678916015625 1.3050000000000002 Q 10.6678916015625 1.335 10.6851416015625 1.35375 Q 10.7023916015625 1.3725 10.7338916015625 1.3725 M 11.77790185546875 0.6900000000000001 Q 11.77790185546875 0.6255000000000001 11.71565185546875 0.6255000000000001 Q 11.65340185546875 0.6255000000000001 11.61290185546875 0.672 L 11.52890185546875 1.1505 L 11.27390185546875 1.1505 L 11.40140185546875 0.42900000000000005 L 11.63840185546875 0.42900000000000005 L 11.62190185546875 0.5175000000000001 Q 11.71040185546875 0.40800000000000003 11.84540185546875 0.40800000000000003 Q 11.98040185546875 0.40800000000000003 12.02090185546875 0.4740000000000001 Q 12.04640185546875 0.516 12.04640185546875 0.5700000000000001 Q 12.04640185546875 0.6240000000000001 12.03890185546875 0.6705000000000001 L 11.99840185546875 0.9015000000000001 Q 11.99690185546875 0.9105000000000001 11.99690185546875 0.918 Q 11.99690185546875 0.9585000000000001 12.04190185546875 0.9585000000000001 Q 12.07640185546875 0.9585000000000001 12.10340185546875 0.9435 L 12.09590185546875 1.113 Q 12.02540185546875 1.1715 11.93540185546875 1.1715 Q 11.73140185546875 1.1715 11.73140185546875 1.0005000000000002 Q 11.73140185546875 0.9705000000000001 11.73740185546875 0.936 L 11.77340185546875 0.7365 Q 11.77790185546875 0.7095 11.77790185546875 0.6900000000000001 M 12.9269208984375 1.1715 Q 12.7124208984375 1.1715 12.6299208984375 1.0785 Q 12.5729208984375 1.0125000000000002 12.5729208984375 0.8940000000000001 Q 12.5729208984375 0.8430000000000001 12.5834208984375 0.7845000000000001 L 12.6449208984375 0.4395000000000001 Q 12.7124208984375 0.06000000000000005 13.1324208984375 0.06000000000000005 Q 13.3064208984375 0.06000000000000005 13.3964208984375 0.13424999999999998 Q 13.4864208984375 0.20850000000000002 13.4864208984375 0.3375 Q 13.4864208984375 0.3975000000000001 13.4691708984375 0.4567500000000001 Q 13.4519208984375 0.516 13.4354208984375 0.5445000000000001 L 13.4189208984375 0.5745 L 13.1534208984375 0.5745 Q 13.2029208984375 0.5175000000000001 13.2029208984375 0.4125000000000001 Q 13.2029208984375 0.3570000000000001 13.1744208984375 0.3247500000000001 Q 13.1459208984375 0.2925000000000001 13.0904208984375 0.2925000000000001 Q 12.9389208984375 0.2925000000000001 12.9104208984375 0.4605 L 12.8579208984375 0.7635000000000001 Q 12.8504208984375 0.8025 12.8504208984375 0.8400000000000001 Q 12.8504208984375 0.9390000000000001 12.9689208984375 0.9390000000000001 Q 13.1114208984375 0.9390000000000001 13.1399208984375 0.7785000000000001 L 13.4099208984375 0.7785000000000001 L 13.4024208984375 0.8220000000000001 Q 13.3424208984375 1.1715 12.9269208984375 1.1715 M 13.9708798828125 0.40800000000000003 Q 14.1328798828125 0.40800000000000003 14.215379882812499 0.47850000000000004 Q 14.2798798828125 0.534 14.2798798828125 0.6330000000000001 Q 14.2798798828125 0.6660000000000001 14.2723798828125 0.7050000000000001 L 14.2408798828125 0.8805000000000001 Q 14.2123798828125 1.0395 14.1081298828125 1.1055000000000001 Q 14.0038798828125 1.1715 13.8298798828125 1.1715 Q 13.6558798828125 1.1715 13.5748798828125 1.1055000000000001 Q 13.5148798828125 1.056 13.5148798828125 0.9570000000000001 Q 13.5148798828125 0.9225000000000001 13.5223798828125 0.8805000000000001 L 13.5538798828125 0.7050000000000001 Q 13.6063798828125 0.40800000000000003 13.9708798828125 0.40800000000000003 M 14.0113798828125 0.7350000000000001 Q 14.0143798828125 0.7200000000000001 14.0143798828125 0.6967500000000001 Q 14.0143798828125 0.6735 13.9948798828125 0.645 Q 13.9753798828125 0.6165 13.9266298828125 0.6165 Q 13.8778798828125 0.6165 13.8448798828125 0.64875 Q 13.8118798828125 0.681 13.8028798828125 0.7350000000000001 L 13.7833798828125 0.8475000000000001 Q 13.7803798828125 0.8625 13.7803798828125 0.88575 Q 13.7803798828125 0.909 13.7998798828125 0.936 Q 13.8193798828125 0.9630000000000001 13.8681298828125 0.9630000000000001 Q 13.9168798828125 0.9630000000000001 13.9498798828125 0.9292500000000001 Q 13.9828798828125 0.8955000000000001 13.9918798828125 0.8475000000000001 L 14.0113798828125 0.7350000000000001" fill="#ffffff" fill-rule="nonzero"></path></g><g><path d=" M 0.3405 2.139431250000001 Q 0.337125 2.1450562500000006 0.33337500000000003 2.1478687500000007 Q 0.329625 2.1506812500000008 0.323625 2.1506812500000008 Q 0.31725000000000003 2.1506812500000008 0.3088125 2.1443062500000005 Q 0.300375 2.1379312500000007 0.2874375 2.130243750000001 Q 0.2745 2.1225562500000006 0.2563125 2.116181250000001 Q 0.238125 2.1098062500000005 0.21225 2.1098062500000005 Q 0.18787500000000001 2.1098062500000005 0.169125 2.116368750000001 Q 0.150375 2.1229312500000006 0.1378125 2.1341812500000006 Q 0.12525 2.1454312500000006 0.11887500000000001 2.1606187500000007 Q 0.1125 2.175806250000001 0.1125 2.1934312500000006 Q 0.1125 2.2159312500000006 0.1235625 2.2307437500000007 Q 0.134625 2.245556250000001 0.1528125 2.2560562500000008 Q 0.171 2.2665562500000007 0.1940625 2.2742437500000006 Q 0.217125 2.2819312500000004 0.2413125 2.2901812500000007 Q 0.2655 2.2984312500000006 0.2885625 2.3087437500000005 Q 0.311625 2.3190562500000005 0.3298125 2.3348062500000006 Q 0.34800000000000003 2.350556250000001 0.3590625 2.3734312500000008 Q 0.370125 2.3963062500000007 0.370125 2.4296812500000007 Q 0.370125 2.4649312500000007 0.358125 2.4958687500000005 Q 0.346125 2.526806250000001 0.32306250000000003 2.549681250000001 Q 0.3 2.5725562500000008 0.2664375 2.585681250000001 Q 0.232875 2.5988062500000004 0.19012500000000002 2.5988062500000004 Q 0.138 2.5988062500000004 0.09506250000000001 2.5798687500000006 Q 0.052125 2.5609312500000008 0.021750000000000002 2.5286812500000004 L 0.04275 2.4941812500000005 Q 0.04575 2.4900562500000007 0.0500625 2.4872437500000006 Q 0.054375 2.4844312500000005 0.059625000000000004 2.4844312500000005 Q 0.0675 2.4844312500000005 0.077625 2.492868750000001 Q 0.08775000000000001 2.5013062500000007 0.1029375 2.5114312500000007 Q 0.11812500000000001 2.5215562500000006 0.1396875 2.5299937500000005 Q 0.16125 2.538431250000001 0.192375 2.538431250000001 Q 0.21825 2.538431250000001 0.23850000000000002 2.5313062500000005 Q 0.25875 2.5241812500000007 0.2728125 2.5112437500000007 Q 0.286875 2.4983062500000006 0.294375 2.480306250000001 Q 0.301875 2.4623062500000006 0.301875 2.4401812500000006 Q 0.301875 2.4158062500000006 0.29081250000000003 2.4002437500000005 Q 0.27975 2.3846812500000008 0.26175 2.374181250000001 Q 0.24375 2.363681250000001 0.2206875 2.3563687500000006 Q 0.197625 2.3490562500000007 0.1734375 2.341368750000001 Q 0.14925 2.3336812500000006 0.1261875 2.3235562500000007 Q 0.10312500000000001 2.3134312500000007 0.085125 2.2973062500000005 Q 0.067125 2.281181250000001 0.0560625 2.256993750000001 Q 0.045 2.2328062500000008 0.045 2.1971812500000008 Q 0.045 2.1686812500000006 0.0560625 2.1420562500000004 Q 0.067125 2.1154312500000008 0.088125 2.0948062500000004 Q 0.109125 2.0741812500000005 0.1400625 2.0618062500000005 Q 0.171 2.0494312500000005 0.211125 2.0494312500000005 Q 0.256125 2.0494312500000005 0.29325 2.0636812500000006 Q 0.33037500000000003 2.0779312500000007 0.358125 2.104931250000001 L 0.3405 2.139431250000001 M 0.52708447265625 2.2129312500000005 L 0.52708447265625 2.5928062500000006 L 0.46033447265625005 2.5928062500000006 L 0.46033447265625005 2.2129312500000005 L 0.52708447265625 2.2129312500000005 M 0.54208447265625 2.093681250000001 Q 0.54208447265625 2.1034312500000008 0.53814697265625 2.1118687500000006 Q 0.5342094726562501 2.1203062500000005 0.52764697265625 2.1268687500000008 Q 0.52108447265625 2.1334312500000006 0.51245947265625 2.1371812500000007 Q 0.50383447265625 2.1409312500000004 0.49408447265625 2.1409312500000004 Q 0.48433447265625 2.1409312500000004 0.47589697265625003 2.1371812500000007 Q 0.46745947265625004 2.1334312500000006 0.46089697265625 2.1268687500000008 Q 0.45433447265625004 2.1203062500000005 0.45058447265625 2.1118687500000006 Q 0.44683447265625004 2.1034312500000008 0.44683447265625004 2.093681250000001 Q 0.44683447265625004 2.083931250000001 0.45058447265625 2.0751187500000006 Q 0.45433447265625004 2.0663062500000007 0.46089697265625 2.059743750000001 Q 0.46745947265625004 2.0531812500000006 0.47589697265625003 2.0494312500000005 Q 0.48433447265625 2.045681250000001 0.49408447265625 2.045681250000001 Q 0.50383447265625 2.045681250000001 0.51245947265625 2.0494312500000005 Q 0.52108447265625 2.0531812500000006 0.52764697265625 2.059743750000001 Q 0.5342094726562501 2.0663062500000007 0.53814697265625 2.0751187500000006 Q 0.54208447265625 2.083931250000001 0.54208447265625 2.093681250000001 M 0.645383056640625 2.5928062500000006 L 0.645383056640625 2.2129312500000005 L 0.6851330566406251 2.2129312500000005 Q 0.6993830566406251 2.2129312500000005 0.7031330566406251 2.2268062500000005 L 0.7083830566406251 2.2680562500000008 Q 0.7331330566406251 2.2406812500000006 0.763695556640625 2.223806250000001 Q 0.794258056640625 2.2069312500000007 0.8343830566406251 2.2069312500000007 Q 0.865508056640625 2.2069312500000007 0.889320556640625 2.2172437500000006 Q 0.913133056640625 2.2275562500000006 0.929070556640625 2.246493750000001 Q 0.945008056640625 2.2654312500000007 0.953258056640625 2.292056250000001 Q 0.9615080566406251 2.3186812500000005 0.9615080566406251 2.350931250000001 L 0.9615080566406251 2.5928062500000006 L 0.894758056640625 2.5928062500000006 L 0.894758056640625 2.350931250000001 Q 0.894758056640625 2.3078062500000005 0.875070556640625 2.2839937500000005 Q 0.8553830566406251 2.2601812500000005 0.8148830566406251 2.2601812500000005 Q 0.7852580566406251 2.2601812500000005 0.759570556640625 2.2744312500000006 Q 0.733883056640625 2.2886812500000007 0.712133056640625 2.3130562500000007 L 0.712133056640625 2.5928062500000006 L 0.645383056640625 2.5928062500000006 M 1.3220474853515625 2.280431250000001 Q 1.3190474853515626 2.2845562500000005 1.3160474853515627 2.2868062500000006 Q 1.3130474853515626 2.2890562500000007 1.3074224853515626 2.2890562500000007 Q 1.3017974853515626 2.2890562500000007 1.2952349853515626 2.2843687500000005 Q 1.2886724853515625 2.2796812500000008 1.2785474853515626 2.2740562500000006 Q 1.2684224853515627 2.268431250000001 1.2539849853515626 2.2637437500000006 Q 1.2395474853515625 2.2590562500000004 1.2185474853515625 2.2590562500000004 Q 1.1907974853515626 2.2590562500000004 1.1694224853515625 2.268993750000001 Q 1.1480474853515625 2.2789312500000007 1.1336099853515627 2.2976812500000006 Q 1.1191724853515626 2.316431250000001 1.1118599853515625 2.3430562500000005 Q 1.1045474853515627 2.3696812500000006 1.1045474853515627 2.4026812500000005 Q 1.1045474853515627 2.4371812500000005 1.1124224853515625 2.4639937500000006 Q 1.1202974853515626 2.4908062500000008 1.1345474853515625 2.5089937500000006 Q 1.1487974853515626 2.527181250000001 1.1692349853515625 2.5367437500000007 Q 1.1896724853515626 2.5463062500000007 1.2151724853515626 2.5463062500000007 Q 1.2395474853515625 2.5463062500000007 1.2552974853515626 2.5404937500000004 Q 1.2710474853515625 2.5346812500000007 1.2815474853515625 2.527556250000001 Q 1.2920474853515627 2.5204312500000006 1.2987974853515625 2.514618750000001 Q 1.3055474853515625 2.5088062500000006 1.3122974853515625 2.5088062500000006 Q 1.3209224853515626 2.5088062500000006 1.3250474853515626 2.515181250000001 L 1.3437974853515626 2.539556250000001 Q 1.3190474853515626 2.5699312500000007 1.2819224853515625 2.5839937500000008 Q 1.2447974853515626 2.598056250000001 1.2035474853515626 2.598056250000001 Q 1.1679224853515626 2.598056250000001 1.1373599853515626 2.584931250000001 Q 1.1067974853515625 2.5718062500000007 1.0842974853515626 2.5468687500000007 Q 1.0617974853515626 2.5219312500000006 1.0488599853515626 2.4855562500000006 Q 1.0359224853515625 2.4491812500000005 1.0359224853515625 2.4026812500000005 Q 1.0359224853515625 2.3603062500000007 1.0477349853515625 2.3243062500000007 Q 1.0595474853515625 2.2883062500000007 1.0822349853515625 2.2622437500000006 Q 1.1049224853515627 2.2361812500000005 1.1382974853515626 2.221556250000001 Q 1.1716724853515625 2.2069312500000007 1.2147974853515626 2.2069312500000007 Q 1.2545474853515626 2.2069312500000007 1.2852974853515626 2.2198687500000007 Q 1.3160474853515627 2.2328062500000008 1.3396724853515627 2.2564312500000008 L 1.3220474853515625 2.280431250000001 M 1.564094970703125 2.2069312500000007 Q 1.598219970703125 2.2069312500000007 1.627094970703125 2.2183687500000007 Q 1.655969970703125 2.2298062500000007 1.6769699707031251 2.2513687500000006 Q 1.697969970703125 2.2729312500000005 1.709782470703125 2.304618750000001 Q 1.721594970703125 2.3363062500000007 1.721594970703125 2.3768062500000005 Q 1.721594970703125 2.3925562500000006 1.7182199707031252 2.397806250000001 Q 1.714844970703125 2.4030562500000006 1.7054699707031251 2.4030562500000006 L 1.452719970703125 2.4030562500000006 Q 1.4534699707031251 2.4390562500000006 1.462469970703125 2.4656812500000007 Q 1.4714699707031251 2.492306250000001 1.487219970703125 2.5101187500000006 Q 1.5029699707031252 2.527931250000001 1.5247199707031251 2.5367437500000007 Q 1.546469970703125 2.5455562500000006 1.573469970703125 2.5455562500000006 Q 1.598594970703125 2.5455562500000006 1.616782470703125 2.539743750000001 Q 1.634969970703125 2.5339312500000006 1.6480949707031252 2.527181250000001 Q 1.661219970703125 2.5204312500000006 1.670032470703125 2.514618750000001 Q 1.6788449707031252 2.5088062500000006 1.685219970703125 2.5088062500000006 Q 1.693469970703125 2.5088062500000006 1.697969970703125 2.515181250000001 L 1.716719970703125 2.539556250000001 Q 1.704344970703125 2.5545562500000005 1.687094970703125 2.5656187500000005 Q 1.669844970703125 2.5766812500000005 1.650157470703125 2.5838062500000007 Q 1.6304699707031252 2.5909312500000006 1.609469970703125 2.5944937500000007 Q 1.5884699707031251 2.598056250000001 1.567844970703125 2.598056250000001 Q 1.528469970703125 2.598056250000001 1.4952824707031251 2.584743750000001 Q 1.462094970703125 2.5714312500000007 1.4379074707031252 2.5457437500000006 Q 1.4137199707031252 2.5200562500000006 1.400219970703125 2.4821812500000004 Q 1.386719970703125 2.444306250000001 1.386719970703125 2.3951812500000007 Q 1.386719970703125 2.3554312500000005 1.398907470703125 2.3209312500000006 Q 1.411094970703125 2.2864312500000006 1.433969970703125 2.2611187500000005 Q 1.456844970703125 2.2358062500000004 1.4898449707031252 2.221368750000001 Q 1.522844970703125 2.2069312500000007 1.564094970703125 2.2069312500000007 M 1.5655949707031251 2.2560562500000008 Q 1.517219970703125 2.2560562500000008 1.4894699707031251 2.2839937500000005 Q 1.461719970703125 2.3119312500000007 1.4549699707031252 2.3614312500000008 L 1.661594970703125 2.3614312500000008 Q 1.661594970703125 2.3381812500000008 1.6552199707031252 2.3188687500000005 Q 1.648844970703125 2.2995562500000006 1.6364699707031252 2.2854937500000005 Q 1.6240949707031251 2.2714312500000005 1.6062824707031251 2.2637437500000006 Q 1.5884699707031251 2.2560562500000008 1.5655949707031251 2.2560562500000008 M 2.1232049560546877 2.0494312500000005 Q 2.1573299560546877 2.0494312500000005 2.1869549560546875 2.059556250000001 Q 2.2165799560546877 2.0696812500000004 2.2381424560546876 2.0889937500000006 Q 2.2597049560546876 2.1083062500000005 2.2720799560546876 2.1360562500000007 Q 2.2844549560546876 2.163806250000001 2.2844549560546876 2.199056250000001 Q 2.2844549560546876 2.2290562500000006 2.2754549560546877 2.2545562500000007 Q 2.2664549560546874 2.280056250000001 2.2510799560546877 2.303493750000001 Q 2.2357049560546876 2.326931250000001 2.2156424560546877 2.3488687500000007 Q 2.195579956054688 2.3708062500000007 2.1730799560546874 2.3936812500000006 L 2.031704956054688 2.538431250000001 Q 2.0467049560546875 2.5343062500000006 2.0620799560546876 2.5318687500000006 Q 2.0774549560546878 2.5294312500000005 2.0917049560546874 2.5294312500000005 L 2.2717049560546876 2.5294312500000005 Q 2.2825799560546876 2.5294312500000005 2.288954956054688 2.5358062500000007 Q 2.2953299560546876 2.5421812500000005 2.2953299560546876 2.5523062500000004 L 2.2953299560546876 2.5928062500000006 L 1.9368299560546876 2.5928062500000006 L 1.9368299560546876 2.5699312500000007 Q 1.9368299560546876 2.562806250000001 1.9396424560546877 2.5553062500000006 Q 1.9424549560546875 2.5478062500000007 1.9488299560546876 2.5414312500000005 L 2.1209549560546876 2.3685562500000006 Q 2.1423299560546876 2.3468062500000006 2.159954956054688 2.3267437500000008 Q 2.1775799560546876 2.3066812500000005 2.1901424560546876 2.2864312500000006 Q 2.2027049560546876 2.2661812500000007 2.2094549560546874 2.245368750000001 Q 2.2162049560546877 2.2245562500000005 2.2162049560546877 2.2009312500000004 Q 2.2162049560546877 2.1773062500000004 2.208704956054688 2.1594937500000007 Q 2.2012049560546876 2.1416812500000004 2.1880799560546875 2.130056250000001 Q 2.1749549560546875 2.1184312500000004 2.1573299560546877 2.1126187500000007 Q 2.1397049560546875 2.106806250000001 2.1194549560546876 2.106806250000001 Q 2.0992049560546877 2.106806250000001 2.0819549560546875 2.1128062500000007 Q 2.0647049560546877 2.1188062500000004 2.0513924560546877 2.129493750000001 Q 2.0380799560546876 2.140181250000001 2.0288924560546877 2.1548062500000005 Q 2.019704956054688 2.1694312500000006 2.0159549560546877 2.187056250000001 Q 2.0129549560546875 2.197931250000001 2.0069549560546878 2.2028062500000005 Q 2.0009549560546875 2.2076812500000007 1.9912049560546876 2.2076812500000007 Q 1.9893299560546875 2.2076812500000007 1.9872674560546877 2.2074937500000007 Q 1.9852049560546876 2.2073062500000007 1.9825799560546877 2.2069312500000007 L 1.9477049560546877 2.2009312500000004 Q 1.9529549560546877 2.1641812500000004 1.9679549560546876 2.1358687500000006 Q 1.9829549560546877 2.1075562500000005 2.0060174560546877 2.0884312500000006 Q 2.0290799560546877 2.069306250000001 2.0588924560546875 2.059368750000001 Q 2.0887049560546878 2.0494312500000005 2.1232049560546877 2.0494312500000005 M 2.7459052734375002 2.3243062500000007 Q 2.7459052734375002 2.3948062500000007 2.7307177734375 2.4463687500000004 Q 2.7155302734375 2.4979312500000006 2.6892802734375003 2.5316812500000005 Q 2.6630302734375 2.5654312500000005 2.6272177734375 2.5819312500000007 Q 2.5914052734375 2.598431250000001 2.5505302734375004 2.598431250000001 Q 2.5092802734375 2.598431250000001 2.4738427734375 2.5819312500000007 Q 2.4384052734375 2.5654312500000005 2.4121552734375 2.5316812500000005 Q 2.3859052734375004 2.4979312500000006 2.3709052734375002 2.4463687500000004 Q 2.3559052734375 2.3948062500000007 2.3559052734375 2.3243062500000007 Q 2.3559052734375 2.2538062500000007 2.3709052734375002 2.2020562500000005 Q 2.3859052734375004 2.1503062500000008 2.4121552734375 2.116368750000001 Q 2.4384052734375 2.082431250000001 2.4738427734375 2.0659312500000007 Q 2.5092802734375 2.0494312500000005 2.5505302734375004 2.0494312500000005 Q 2.5914052734375 2.0494312500000005 2.6272177734375 2.0659312500000007 Q 2.6630302734375 2.082431250000001 2.6892802734375003 2.116368750000001 Q 2.7155302734375 2.1503062500000008 2.7307177734375 2.2020562500000005 Q 2.7459052734375002 2.2538062500000007 2.7459052734375002 2.3243062500000007 M 2.6765302734375003 2.3243062500000007 Q 2.6765302734375003 2.2628062500000006 2.6662177734375003 2.2209937500000008 Q 2.6559052734375 2.1791812500000005 2.6384677734375 2.153681250000001 Q 2.6210302734375004 2.128181250000001 2.5981552734375 2.117118750000001 Q 2.5752802734375 2.106056250000001 2.5505302734375004 2.106056250000001 Q 2.5257802734375003 2.106056250000001 2.5029052734375004 2.117118750000001 Q 2.4800302734375004 2.128181250000001 2.4627802734375 2.153681250000001 Q 2.4455302734375 2.1791812500000005 2.4352177734375 2.2209937500000008 Q 2.4249052734375 2.2628062500000006 2.4249052734375 2.3243062500000007 Q 2.4249052734375 2.385806250000001 2.4352177734375 2.4274312500000006 Q 2.4455302734375 2.469056250000001 2.4627802734375 2.4945562500000005 Q 2.4800302734375004 2.5200562500000006 2.5029052734375004 2.5311187500000005 Q 2.5257802734375003 2.5421812500000005 2.5505302734375004 2.5421812500000005 Q 2.5752802734375 2.5421812500000005 2.5981552734375 2.5311187500000005 Q 2.6210302734375004 2.5200562500000006 2.6384677734375 2.4945562500000005 Q 2.6559052734375 2.469056250000001 2.6662177734375003 2.4274312500000006 Q 2.6765302734375003 2.385806250000001 2.6765302734375003 2.3243062500000007 M 2.9943555908203128 2.0494312500000005 Q 3.0284805908203127 2.0494312500000005 3.0581055908203125 2.059556250000001 Q 3.0877305908203128 2.0696812500000004 3.1092930908203127 2.0889937500000006 Q 3.1308555908203126 2.1083062500000005 3.1432305908203126 2.1360562500000007 Q 3.1556055908203127 2.163806250000001 3.1556055908203127 2.199056250000001 Q 3.1556055908203127 2.2290562500000006 3.1466055908203128 2.2545562500000007 Q 3.1376055908203124 2.280056250000001 3.1222305908203127 2.303493750000001 Q 3.1068555908203126 2.326931250000001 3.0867930908203127 2.3488687500000007 Q 3.066730590820313 2.3708062500000007 3.0442305908203124 2.3936812500000006 L 2.902855590820313 2.538431250000001 Q 2.9178555908203125 2.5343062500000006 2.9332305908203127 2.5318687500000006 Q 2.948605590820313 2.5294312500000005 2.9628555908203125 2.5294312500000005 L 3.1428555908203126 2.5294312500000005 Q 3.1537305908203126 2.5294312500000005 3.160105590820313 2.5358062500000007 Q 3.1664805908203126 2.5421812500000005 3.1664805908203126 2.5523062500000004 L 3.1664805908203126 2.5928062500000006 L 2.807980590820313 2.5928062500000006 L 2.807980590820313 2.5699312500000007 Q 2.807980590820313 2.562806250000001 2.8107930908203125 2.5553062500000006 Q 2.8136055908203126 2.5478062500000007 2.819980590820313 2.5414312500000005 L 2.9921055908203127 2.3685562500000006 Q 3.0134805908203126 2.3468062500000006 3.031105590820313 2.3267437500000008 Q 3.0487305908203126 2.3066812500000005 3.0612930908203126 2.2864312500000006 Q 3.0738555908203127 2.2661812500000007 3.0806055908203125 2.245368750000001 Q 3.0873555908203127 2.2245562500000005 3.0873555908203127 2.2009312500000004 Q 3.0873555908203127 2.1773062500000004 3.079855590820313 2.1594937500000007 Q 3.0723555908203126 2.1416812500000004 3.0592305908203126 2.130056250000001 Q 3.0461055908203125 2.1184312500000004 3.0284805908203127 2.1126187500000007 Q 3.0108555908203125 2.106806250000001 2.9906055908203126 2.106806250000001 Q 2.9703555908203128 2.106806250000001 2.9531055908203125 2.1128062500000007 Q 2.9358555908203128 2.1188062500000004 2.9225430908203127 2.129493750000001 Q 2.9092305908203127 2.140181250000001 2.9000430908203128 2.1548062500000005 Q 2.890855590820313 2.1694312500000006 2.8871055908203127 2.187056250000001 Q 2.8841055908203126 2.197931250000001 2.878105590820313 2.2028062500000005 Q 2.8721055908203126 2.2076812500000007 2.8623555908203127 2.2076812500000007 Q 2.8604805908203126 2.2076812500000007 2.8584180908203125 2.2074937500000007 Q 2.856355590820313 2.2073062500000007 2.8537305908203128 2.2069312500000007 L 2.818855590820313 2.2009312500000004 Q 2.8241055908203125 2.1641812500000004 2.8391055908203127 2.1358687500000006 Q 2.854105590820313 2.1075562500000005 2.8771680908203128 2.0884312500000006 Q 2.9002305908203128 2.069306250000001 2.9300430908203126 2.059368750000001 Q 2.959855590820313 2.0494312500000005 2.9943555908203128 2.0494312500000005 M 3.5713059082031253 2.0846812500000005 Q 3.5713059082031253 2.0989312500000006 3.5623059082031254 2.1081187500000005 Q 3.553305908203125 2.1173062500000004 3.531930908203125 2.1173062500000004 L 3.363180908203125 2.1173062500000004 L 3.3384309082031254 2.2583062500000004 Q 3.380430908203125 2.2493062500000005 3.416055908203125 2.2493062500000005 Q 3.458055908203125 2.2493062500000005 3.4901184082031254 2.2616812500000005 Q 3.5221809082031252 2.2740562500000006 3.543930908203125 2.2958062500000005 Q 3.565680908203125 2.317556250000001 3.576743408203125 2.3471812500000007 Q 3.587805908203125 2.3768062500000005 3.587805908203125 2.4116812500000004 Q 3.587805908203125 2.4544312500000007 3.5728059082031254 2.4889312500000007 Q 3.5578059082031253 2.5234312500000007 3.531743408203125 2.5479937500000007 Q 3.505680908203125 2.5725562500000008 3.470430908203125 2.585681250000001 Q 3.435180908203125 2.5988062500000004 3.3943059082031253 2.5988062500000004 Q 3.3706809082031253 2.5988062500000004 3.3489309082031253 2.5941187500000007 Q 3.3271809082031254 2.5894312500000005 3.308430908203125 2.5815562500000007 Q 3.2896809082031253 2.573681250000001 3.273555908203125 2.5635562500000004 Q 3.257430908203125 2.5534312500000005 3.2450559082031254 2.5421812500000005 L 3.2653059082031253 2.5136812500000008 Q 3.272055908203125 2.503931250000001 3.283305908203125 2.503931250000001 Q 3.2904309082031253 2.503931250000001 3.2999934082031253 2.5097437500000006 Q 3.309555908203125 2.515556250000001 3.3230559082031252 2.5226812500000007 Q 3.3365559082031253 2.5298062500000005 3.354743408203125 2.5356187500000007 Q 3.3729309082031254 2.5414312500000005 3.3980559082031254 2.5414312500000005 Q 3.426180908203125 2.5414312500000005 3.448680908203125 2.5324312500000006 Q 3.471180908203125 2.5234312500000007 3.4871184082031252 2.5067437500000005 Q 3.503055908203125 2.4900562500000007 3.5116809082031253 2.4668062500000008 Q 3.520305908203125 2.4435562500000008 3.520305908203125 2.4146812500000006 Q 3.520305908203125 2.3895562500000005 3.5129934082031253 2.3693062500000006 Q 3.505680908203125 2.3490562500000007 3.4908684082031254 2.3348062500000006 Q 3.4760559082031253 2.3205562500000005 3.4539309082031253 2.3126812500000007 Q 3.4318059082031254 2.3048062500000004 3.402180908203125 2.3048062500000004 Q 3.3819309082031253 2.3048062500000004 3.3601809082031253 2.3081812500000005 Q 3.3384309082031254 2.3115562500000006 3.3151809082031254 2.3190562500000005 L 3.273180908203125 2.3066812500000005 L 3.316680908203125 2.0554312500000007 L 3.5713059082031253 2.0554312500000007 L 3.5713059082031253 2.0846812500000005" fill="#ffffff" fill-rule="nonzero"></path></g></g><defs><clipPath id="SvgjsClipPath29960"><path d=" M -8.297910361613518 -1.4229550115908705 h 7.897910361613517 v 5.438716273181742 h -7.897910361613517 Z"></path></clipPath><clipPath id="SvgjsClipPath2995550243d57-0eb7-42e4-b48f-d2e12263df8c"><path d=" M -8.297910361613518 -1.4229550115908705 L -0.40000000000000036 -1.4229550115908705 L -0.40000000000000036 4.015761261590871 L -8.297910361613518 4.015761261590871 Z"></path></clipPath></defs></svg>