<?xml version="1.0" encoding="UTF-8"?>
<svg version="1.1" xmlns="http://www.w3.org/2000/svg" width="500" height="500">
<path d="M0 0 C165 0 330 0 500 0 C500 165 500 330 500 500 C335 500 170 500 0 500 C0 335 0 170 0 0 Z " fill="#FEFEFE" transform="translate(0,0)"/>
<path d="M0 0 C1.77886191 1.05704036 3.53431497 2.15573343 5.25 3.3125 C6.343125 4.034375 7.43625 4.75625 8.5625 5.5 C16.83247235 14.15462223 20.76863781 23.2453481 20.57421875 35.1796875 C19.81813329 42.48547708 16.54086372 48.84392547 13.25 55.3125 C23.62713462 64.94914619 23.62713462 64.94914619 34.25 74.3125 C35.39063746 75.29555846 36.53126114 76.27863291 37.671875 77.26171875 C38.92686855 78.34139554 40.18207858 79.42082075 41.4375 80.5 C42.03232178 81.01175781 42.62714355 81.52351563 43.23999023 82.05078125 C43.81434814 82.54320312 44.38870605 83.035625 44.98046875 83.54296875 C45.48989014 83.98020264 45.99931152 84.41743652 46.52416992 84.86791992 C48.7360306 86.7193246 50.99762633 88.51060106 53.25 90.3125 C53.58 84.3725 53.91 78.4325 54.25 72.3125 C57.41760724 72.20368906 60.58141121 72.12480371 63.75 72.0625 C64.636875 72.02898437 65.52375 71.99546875 66.4375 71.9609375 C73.23231993 71.86101368 78.71091898 73.02759488 83.81030273 77.76074219 C88.61172597 83.17074859 88.60838539 88.29530939 88.5234375 95.26953125 C88.0496004 100.54266123 86.43678907 104.39730357 82.42578125 107.91015625 C80.75676446 109.12552547 79.00836805 110.23042736 77.25 111.3125 C77.91 111.9725 78.57 112.6325 79.25 113.3125 C78.875 115.4375 78.875 115.4375 78.25 117.3125 C68.35220429 117.56259744 58.55526456 116.89001234 48.69433594 116.140625 C45.99208168 115.93690304 43.28913275 115.74546675 40.5859375 115.5546875 C38.84369471 115.42522109 37.10150501 115.29503774 35.359375 115.1640625 C34.56335876 115.10876373 33.76734253 115.05346497 32.94720459 114.99649048 C30.70534338 114.82011002 28.48190556 114.58657439 26.25 114.3125 C25.5215538 114.23321762 24.7931076 114.15393524 24.04258728 114.07225037 C21.92456055 113.71899414 21.92456055 113.71899414 18.25 112.3125 C16.46194123 109.72004308 15.45091656 107.82460838 14.34765625 104.95703125 C14.02735443 104.19917328 13.70705261 103.44131531 13.37704468 102.66049194 C12.32716889 100.159426 11.32035457 97.64325768 10.3125 95.125 C9.58979883 93.38256938 8.86392112 91.64145318 8.13500977 89.90161133 C6.60960757 86.25465912 5.09834067 82.60227324 3.59472656 78.94628906 C1.26108681 73.30288336 -1.17124012 67.70578958 -3.6328125 62.1171875 C-4.02761307 61.22023666 -4.42241364 60.32328583 -4.82917786 59.39915466 C-5.98940843 56.76571554 -7.1508782 54.13282568 -8.3125 51.5 C-9.75677988 48.22502644 -11.19535984 44.94765342 -12.62890625 41.66796875 C-13.10573349 40.5894313 -13.10573349 40.5894313 -13.5921936 39.48910522 C-15.75 34.54060374 -15.75 34.54060374 -15.75 32.3125 C-12.36436672 32.90163002 -10.62234858 34.04817522 -8.125 36.375 C-5.81597823 38.76236708 -5.81597823 38.76236708 -2.75 39.3125 C-1.0118192 35.83613841 -1.29491047 32.113459 -1.75 28.3125 C-4.11316288 23.49528335 -6.95321055 20.71089473 -11.75 18.3125 C-18.14103136 17.50094046 -21.55200607 18.54140637 -26.75 22.3125 C-30.22229344 26.12082184 -30.18699462 29.99803413 -30.0546875 34.9375 C-29.66815042 37.95050696 -28.55954468 39.89977377 -26.75 42.3125 C-26.75 42.9725 -26.75 43.6325 -26.75 44.3125 C-25.63625 44.745625 -25.63625 44.745625 -24.5 45.1875 C-22.18260203 46.13552644 -19.97082885 47.16095911 -17.75 48.3125 C-17.75 49.9625 -17.75 51.6125 -17.75 53.3125 C-27.85599078 51.63917691 -27.85599078 51.63917691 -31.75 47.3125 C-36.2069822 40.68258465 -38.23850168 34.27896098 -36.75 26.3125 C-34.04896872 19.73080338 -29.66004862 15.84988417 -23.4375 12.5625 C-17.00670183 10.38256842 -12.72972624 10.60335612 -6.625 13.3125 C-1.2510663 16.21889558 2.96118142 20.34262054 4.8828125 26.26171875 C6.27741838 34.05074098 5.26410309 39.53870104 1.25 46.3125 C4.33809695 48.07712683 5.48312136 48.3125 9.25 48.3125 C12.77128737 40.18524299 14.99399956 32.67964634 12.58984375 23.90234375 C9.28346927 15.55768434 3.48561071 8.87147196 -4.7421875 5.16015625 C-13.20613325 2.77486245 -23.18788671 2.92039634 -30.99609375 7.1875 C-31.86427734 7.744375 -31.86427734 7.744375 -32.75 8.3125 C-33.6575 8.89 -34.565 9.4675 -35.5 10.0625 C-41.69370865 16.25620865 -44.78025962 23.34390448 -45.125 32.0625 C-44.93439837 41.12168342 -41.87723335 48.04838089 -35.671875 54.625 C-30.7765596 58.92332572 -24.97125496 60.75718626 -18.75 62.3125 C-18.75 64.2925 -18.75 66.2725 -18.75 68.3125 C-28.89656978 67.82933001 -36.7531667 63.69415913 -43.75 56.3125 C-50.19250405 48.36441077 -52.47015619 38.45669078 -52.15625 28.359375 C-50.87868778 18.77765831 -46.07414104 10.54109725 -38.75 4.3125 C-27.17593362 -3.19243497 -12.89886513 -6.32774516 0 0 Z " fill="#39D699" transform="translate(108.75,165.6875)"/>
<path d="M0 0 C8.48818975 5.07864799 13.33886483 11.64159448 16.4375 20.9375 C17.23450009 28.67232055 16.34461323 36.10005186 12.4375 42.9375 C10.296875 44.24609375 10.296875 44.24609375 8.4375 44.9375 C5.9625 42.9575 5.9625 42.9575 3.4375 40.9375 C5.3125 35.1875 5.3125 35.1875 6.4375 32.9375 C7.18831963 25.03945502 5.89539194 20.00247514 1.8125 13.25 C-2.44049785 9.10892315 -7.72198407 6.75533337 -13.6875 6.5 C-20.69812509 7.29152219 -25.54379432 10.03285581 -30.5625 14.9375 C-34.30332822 20.1746595 -34.45259802 25.73200531 -33.5625 31.9375 C-31.87812565 37.08419939 -29.7871399 40.87259574 -25.6875 44.4375 C-22.30250809 46.06229612 -19.20675235 47.06287944 -15.5625 47.9375 C-15.43434635 45.5522267 -15.43434635 45.5522267 -16.5625 42.9375 C-18.2992221 41.90012808 -18.2992221 41.90012808 -20.375 41.0625 C-24.17684063 39.3424572 -26.11877354 37.77157502 -27.9375 33.99609375 C-29.58924142 28.55567045 -29.37872297 23.70054162 -27 18.5625 C-23.09282549 14.3547736 -19.3519382 11.77317523 -13.5 11.4375 C-7.82516856 12.15811352 -4.9777878 14.33095709 -1.25 18.5625 C1.033005 21.77561815 1.59303645 23.48183962 1.625 27.375 C1.63917969 28.15746094 1.65335938 28.93992188 1.66796875 29.74609375 C1.4375 31.9375 1.4375 31.9375 -0.5625 34.9375 C-5.03045051 33.53328698 -7.33185712 31.2531598 -10.5625 27.9375 C-11.5525 27.6075 -12.5425 27.2775 -13.5625 26.9375 C-13.07390503 28.0195874 -13.07390503 28.0195874 -12.57543945 29.12353516 C-4.06608708 47.98867883 4.27649875 66.91905858 12.4375 85.9375 C12.8809375 86.96907227 13.324375 88.00064453 13.78125 89.06347656 C14.94237399 91.76943975 16.09782691 94.4777156 17.25 97.1875 C17.58169189 97.96174316 17.91338379 98.73598633 18.25512695 99.53369141 C20.4375 104.70357321 20.4375 104.70357321 20.4375 106.9375 C22.4175 107.4325 22.4175 107.4325 24.4375 107.9375 C23.88191406 107.97488281 23.32632813 108.01226562 22.75390625 108.05078125 C19.24176731 109.39522567 17.54653241 112.19557549 15.375 115.125 C14.39213843 116.41292173 13.40905964 117.70067772 12.42578125 118.98828125 C11.92771973 119.64779785 11.4296582 120.30731445 10.91650391 120.98681641 C7.32571694 125.72276686 3.62548061 130.37486881 -0.06201172 135.03564453 C-1.1269754 136.38547647 -2.18811085 137.73833268 -3.24658203 139.09326172 C-4.9882473 141.31982519 -6.74286011 143.53563756 -8.5 145.75 C-9.04382324 146.45044434 -9.58764648 147.15088867 -10.14794922 147.87255859 C-10.66502441 148.51918457 -11.18209961 149.16581055 -11.71484375 149.83203125 C-12.16851318 150.40800049 -12.62218262 150.98396973 -13.08959961 151.57739258 C-14.86824465 153.21983108 -16.17920762 153.62966965 -18.5625 153.9375 C-19.5625 152.9375 -19.5625 152.9375 -19.67430115 150.33998108 C-19.61058661 141.20078907 -19.42672204 132.06902484 -19.16015625 122.93359375 C-19.11762732 121.43775161 -19.07518431 119.94190703 -19.03282166 118.44606018 C-18.94423471 115.33582498 -18.85410743 112.22563909 -18.76293945 109.11547852 C-18.64738999 105.16684279 -18.53653226 101.21809097 -18.42693424 97.26928616 C-18.34075239 94.1882332 -18.25164392 91.10726975 -18.16174126 88.02632332 C-18.11970967 86.57177578 -18.07863668 85.11720016 -18.0386219 83.66259575 C-17.7913381 74.73037388 -17.34127796 65.84093568 -16.5625 56.9375 C-18.0165625 56.8446875 -18.0165625 56.8446875 -19.5 56.75 C-27.19950803 55.59896244 -33.26091625 51.12449955 -38.0546875 45.16015625 C-43.18679925 37.59494489 -44.73461953 29.99152537 -43.5625 20.9375 C-41.46402501 12.67328107 -37.25533639 6.78406138 -30.5625 1.625 C-21.70214536 -3.35894949 -9.37180483 -4.37638813 0 0 Z " fill="#59FEBE" transform="translate(106.5625,171.0625)"/>
<path d="M0 0 C8.48818975 5.07864799 13.33886483 11.64159448 16.4375 20.9375 C17.23450009 28.67232055 16.34461323 36.10005186 12.4375 42.9375 C10.296875 44.24609375 10.296875 44.24609375 8.4375 44.9375 C5.9625 42.9575 5.9625 42.9575 3.4375 40.9375 C5.3125 35.1875 5.3125 35.1875 6.4375 32.9375 C7.18831963 25.03945502 5.89539194 20.00247514 1.8125 13.25 C-2.44049785 9.10892315 -7.72198407 6.75533337 -13.6875 6.5 C-20.69812509 7.29152219 -25.54379432 10.03285581 -30.5625 14.9375 C-34.30332822 20.1746595 -34.45259802 25.73200531 -33.5625 31.9375 C-31.86765959 37.11617904 -29.78989312 40.89291011 -25.625 44.4375 C-22.64495879 45.89711202 -19.75167928 47.02630592 -16.5625 47.9375 C-16.5625 50.9075 -16.5625 53.8775 -16.5625 56.9375 C-24.59652414 56.42468995 -30.84452616 53.10022286 -36.375 47.25 C-42.06514389 40.17040237 -44.29428675 32.95622923 -43.9453125 23.89453125 C-42.71345816 14.37908498 -38.04856014 7.39550469 -30.5625 1.625 C-21.70214536 -3.35894949 -9.37180483 -4.37638813 0 0 Z " fill="#F8F9FC" transform="translate(106.5625,171.0625)"/>
<path d="M0 0 C2.60519774 1.10697047 4.64181645 2.39442822 7 4 C7 2.68 7 1.36 7 0 C8.98 0 10.96 0 13 0 C13.0993309 5.14113816 13.17168514 10.28171025 13.21972656 15.42358398 C13.23976622 17.17042784 13.26700587 18.91720525 13.30175781 20.66381836 C13.35061582 23.18359832 13.37304486 25.70248685 13.390625 28.22265625 C13.41127014 28.99585709 13.43191528 29.76905792 13.45318604 30.56568909 C13.45547353 36.17032852 12.19502546 39.37708153 9 44 C4.34186836 47.79006052 -0.1069453 47.49022748 -5.890625 47.359375 C-10.13334091 46.86901085 -11.92248019 45.91116739 -15 43 C-17 40 -17 40 -17 37 C-14.8125 36.6875 -14.8125 36.6875 -12 37 C-11.21625 37.825 -10.4325 38.65 -9.625 39.5 C-7.17139212 42.32094114 -7.17139212 42.32094114 -3.5 42.5 C0.43696481 41.93757646 3.16435505 40.83564495 6 38 C6.07179964 36.48071962 6.08392007 34.95832518 6.0625 33.4375 C6.05347656 32.61121094 6.04445313 31.78492188 6.03515625 30.93359375 C6.02355469 30.29550781 6.01195312 29.65742188 6 29 C5.401875 29.495 4.80375 29.99 4.1875 30.5 C-0.54277457 32.72601156 -4.86669983 32.91062836 -10 32 C-14.82098407 29.43109197 -17.34788318 26.17919412 -19 21 C-19.65465406 15.77037976 -19.64395933 11.36222166 -17.375 6.5625 C-12.1427081 0.91713242 -7.63392534 -1.37357826 0 0 Z " fill="#101A5E" transform="translate(297,246)"/>
<path d="M0 0 C1.77886191 1.05704036 3.53431497 2.15573343 5.25 3.3125 C6.343125 4.034375 7.43625 4.75625 8.5625 5.5 C16.83092638 14.15300435 20.76885191 23.2432715 20.57421875 35.17578125 C19.84278716 42.25216155 16.98030908 48.33759233 13.25 54.3125 C11.93 53.9825 10.61 53.6525 9.25 53.3125 C8.40708668 50.92246728 8.09615596 49.7270692 8.9921875 47.3125 C9.36601563 46.6525 9.73984375 45.9925 10.125 45.3125 C13.82455308 38.68952386 14.56605596 31.25960191 12.6015625 23.875 C9.22050488 15.55239663 3.50643719 8.88086616 -4.7421875 5.16015625 C-13.20613325 2.77486245 -23.18788671 2.92039634 -30.99609375 7.1875 C-31.86427734 7.744375 -31.86427734 7.744375 -32.75 8.3125 C-33.6575 8.89 -34.565 9.4675 -35.5 10.0625 C-41.69370865 16.25620865 -44.78025962 23.34390448 -45.125 32.0625 C-44.93439837 41.12168342 -41.87723335 48.04838089 -35.671875 54.625 C-30.7765596 58.92332572 -24.97125496 60.75718626 -18.75 62.3125 C-18.75 64.2925 -18.75 66.2725 -18.75 68.3125 C-28.89656978 67.82933001 -36.7531667 63.69415913 -43.75 56.3125 C-50.19250405 48.36441077 -52.47015619 38.45669078 -52.15625 28.359375 C-50.87868778 18.77765831 -46.07414104 10.54109725 -38.75 4.3125 C-27.17593362 -3.19243497 -12.89886513 -6.32774516 0 0 Z " fill="#2E3EA9" transform="translate(108.75,165.6875)"/>
<path d="M0 0 C1.98 0 3.96 0 6 0 C6 4.95 6 9.9 6 15 C7.98 13.68 9.96 12.36 12 11 C16.86978591 9.99041024 20.91152634 10.47592009 25.375 12.625 C29.07022997 15.9683033 31.66882073 18.50313157 32.34765625 23.62109375 C32.56167628 30.4790399 31.5736489 35.02421846 27 40.3125 C23.70768067 43.09039443 20.72157275 43.18228104 16.5625 43.25 C15.61503906 43.27578125 14.66757812 43.3015625 13.69140625 43.328125 C10.58322419 42.94918843 9.22645269 42.1685544 7 40 C7 39.34 7 38.68 7 38 C6.34 38 5.68 38 5 38 C5 39.65 5 41.3 5 43 C3.35 43 1.7 43 0 43 C0 28.81 0 14.62 0 0 Z " fill="#121C60" transform="translate(253,183)"/>
<path d="M0 0 C4.51315789 2.02631579 4.51315789 2.02631579 6 5 C6.33 3.68 6.66 2.36 7 1 C8.65 1 10.3 1 12 1 C12 11.23 12 21.46 12 32 C10.35 32 8.7 32 7 32 C6.67 30.68 6.34 29.36 6 28 C5.236875 28.66 4.47375 29.32 3.6875 30 C-0.85489849 32.99238574 -5.77218918 33.00767948 -11 32 C-14.77869719 29.97617819 -17.15041639 27.32978304 -19.4375 23.75 C-20.59478626 18.09215604 -21.09825245 12.38995474 -18.375 7.125 C-13.22754406 0.35203166 -8.21963173 -1.16444783 0 0 Z " fill="#0A145A" transform="translate(340,194)"/>
<path d="M0 0 C4.45146251 2.18526342 7.18885145 4.9394521 10 9 C11.6270583 13.8811749 11.41143185 17.74405013 9.8125 22.625 C7.37381802 27.16599403 4.96964213 30.34345262 0 32 C-4.86175058 32.56151798 -9.81410162 33.11924006 -14.2734375 30.8359375 C-18.52534747 27.33753056 -20.6416666 23.86250053 -21.3359375 18.31640625 C-21.42036083 12.36456141 -21.23255853 8.56670789 -17 4 C-11.88842963 -0.73755303 -6.65085064 -0.98127305 0 0 Z " fill="#0E195D" transform="translate(430,246)"/>
<path d="M0 0 C1.65 0 3.3 0 5 0 C8.40859785 10.252739 11.11843517 20.35309658 13 31 C13.66 31 14.32 31 15 31 C15.10812012 30.40719238 15.21624023 29.81438477 15.32763672 29.20361328 C16.57536568 22.6431387 18.24487973 16.28000303 20.125 9.875 C20.40214844 8.91851562 20.67929688 7.96203125 20.96484375 6.9765625 C21.63956221 4.64994713 22.3179883 2.32448578 23 0 C25.31 0 27.62 0 30 0 C30.23710693 0.87325928 30.47421387 1.74651855 30.71850586 2.64624023 C31.59733114 5.87663916 32.47915047 9.10618902 33.36303711 12.33520508 C33.74543288 13.73461435 34.12662174 15.13435398 34.5065918 16.53442383 C35.05202574 18.5433559 35.60174709 20.5510714 36.15234375 22.55859375 C36.48226318 23.76829834 36.81218262 24.97800293 37.15209961 26.22436523 C37.72682694 28.88338498 37.72682694 28.88338498 39 30 C39.17128418 29.33991943 39.34256836 28.67983887 39.51904297 27.99975586 C40.30348614 24.97877571 41.08923262 21.95813598 41.875 18.9375 C42.14441406 17.89916016 42.41382813 16.86082031 42.69140625 15.79101562 C44.0666455 10.50808438 45.46888618 5.23997689 47 0 C48.98 0 50.96 0 53 0 C51.76053481 7.56073768 49.60391878 14.66097017 47.25683594 21.93408203 C45.3291698 27.91317472 43.5593658 33.91300194 42 40 C39.125 40.1875 39.125 40.1875 36 40 C33.93411734 36.90117601 33.23592169 34.63480581 32.30859375 31.0546875 C32.00373047 29.89582031 31.69886719 28.73695313 31.38476562 27.54296875 C31.07216797 26.33253906 30.75957031 25.12210938 30.4375 23.875 C29.81421004 21.47577797 29.18806594 19.07729495 28.55859375 16.6796875 C28.28329834 15.61476074 28.00800293 14.54983398 27.72436523 13.45263672 C27.23462692 11.07533914 27.23462692 11.07533914 26 10 C25.83395264 10.55349121 25.66790527 11.10698242 25.49682617 11.67724609 C22.66455078 21.11816406 19.83227539 30.55908203 17 40 C14.69 40 12.38 40 10 40 C9.78085938 39.07703125 9.56171875 38.1540625 9.3359375 37.203125 C7.17130173 28.25130868 4.70134091 19.43797314 1.93115234 10.65332031 C1.68059082 9.84475586 1.4300293 9.03619141 1.171875 8.203125 C0.8330127 7.13046387 0.8330127 7.13046387 0.48730469 6.03613281 C0 4 0 4 0 0 Z " fill="#0F1A5E" transform="translate(161,186)"/>
<path d="M0 0 C2.9485854 2.66776774 4.84100258 4.80700517 6.625 8.375 C6.625 11.015 6.625 13.655 6.625 16.375 C-1.625 16.375 -9.875 16.375 -18.375 16.375 C-16.19440167 23.22325895 -16.19440167 23.22325895 -12.375 25.375 C-8.19523765 25.67898272 -4.88125459 25.84236434 -1.375 23.375 C-0.715 22.385 -0.055 21.395 0.625 20.375 C3.25 20.1875 3.25 20.1875 5.625 20.375 C4.79069015 24.04596333 3.93342311 26.06657689 1.25 28.75 C-3.99523287 31.10131129 -8.71594913 31.12902189 -14.375 30.375 C-18.80942062 28.39534794 -21.45410664 25.8035114 -23.67578125 21.42578125 C-25.3255039 16.58720923 -25.34724342 11.82422597 -23.45703125 7.0625 C-18.42763815 -1.79183608 -9.17703398 -4.41857191 0 0 Z " fill="#0D175C" transform="translate(225.375,247.625)"/>
<path d="M0 0 C3.94999532 1.96225574 6.17010966 4.56350279 8.3125 8.265625 C8.94140625 10.33984375 8.94140625 10.33984375 8.94140625 17.33984375 C0.36140625 17.33984375 -8.21859375 17.33984375 -17.05859375 17.33984375 C-14.5430705 23.12998807 -14.5430705 23.12998807 -10.05859375 26.33984375 C-6.60109426 27.00661253 -6.60109426 27.00661253 -3.05859375 26.33984375 C-1.37147952 24.69387865 0.29596845 23.02747226 1.94140625 21.33984375 C5.25390625 21.02734375 5.25390625 21.02734375 7.94140625 21.33984375 C6.63095262 25.27120464 5.10932579 27.65191202 1.94140625 30.33984375 C-3.00460062 31.98851271 -7.90848772 32.04515543 -13.05859375 31.33984375 C-16.9039681 29.37090637 -19.19768524 26.68735272 -21.49609375 23.08984375 C-22.65338001 17.43199979 -23.1568462 11.72979849 -20.43359375 6.46484375 C-15.03261722 -0.64170431 -8.54394111 -2.73989762 0 0 Z " fill="#0D185D" transform="translate(400.05859375,194.66015625)"/>
<path d="M0 0 C3.90457367 2.02673845 6.3564032 4.1669956 7.90625 8.26953125 C7.90625 11.23953125 7.90625 14.20953125 7.90625 17.26953125 C-0.34375 17.26953125 -8.59375 17.26953125 -17.09375 17.26953125 C-14.91315167 24.1177902 -14.91315167 24.1177902 -11.09375 26.26953125 C-7.03820729 26.73333335 -7.03820729 26.73333335 -3.09375 26.26953125 C-1.38694053 24.64399842 0.28285195 22.9783713 1.90625 21.26953125 C5.21875 20.95703125 5.21875 20.95703125 7.90625 21.26953125 C6.55342831 25.69694769 4.67326112 27.63262346 0.90625 30.26953125 C-3.33152701 32.38841976 -8.50376053 31.89090914 -13.09375 31.26953125 C-16.98421537 29.28092288 -19.34012008 26.81243574 -21.25 22.90234375 C-23.09599177 17.14216574 -23.0519948 11.29658756 -20.46875 5.83203125 C-14.59710873 -0.50316064 -8.40896672 -2.93372533 0 0 Z " fill="#081359" transform="translate(239.09375,194.73046875)"/>
<path d="M0 0 C13.07420272 -0.57120303 13.07420272 -0.57120303 18 3 C22.88097598 8.40864906 23.34980882 11.85589232 23.28125 19.01171875 C22.9054694 23.00438764 21.74835565 25.10308459 19 28 C16.5 29.9375 16.5 29.9375 14 31 C9.35346069 30.32486181 5.72062439 28.07960638 2.0859375 25.20703125 C-2.5383132 18.09746229 -0.68336032 8.14986033 0 0 Z " fill="#FBFCFC" transform="translate(169,242)"/>
<path d="M0 0 C4.95520521 2.57289501 8.49116963 5.98233926 11 11 C11.16796875 13.05859375 11.16796875 13.05859375 11.1875 15.4375 C11.20167969 16.21996094 11.21585938 17.00242188 11.23046875 17.80859375 C11 20 11 20 9 23 C4.62417944 21.71299395 2.36997115 19.56391336 -0.5703125 16.2421875 C-2.06177806 14.67206386 -2.06177806 14.67206386 -5 15 C-5.33 19.95 -5.66 24.9 -6 30 C-12.23991521 28.96001413 -13.18318251 28.55897645 -17 24 C-19.69997776 19.49689024 -19.63947272 15.11578173 -19 10 C-16.9205411 5.50836879 -14.27021377 2.9093916 -9.92578125 0.6953125 C-6.34388136 -0.59794953 -3.81280898 -0.48416622 0 0 Z " fill="#F9FAFC" transform="translate(97,183)"/>
<path d="M0 0 C5.37695721 2.90803079 9.57229799 7.02795768 11.51171875 12.94140625 C12.67342649 19.52441675 12.51774959 25.23231315 8.875 31 C7.885 31 6.895 31 5.875 31 C5.215 30.34 4.555 29.68 3.875 29 C4.17904678 27.32774271 4.52128502 25.66246041 4.875 24 C5.34992013 19.31987801 5.34995677 15.96818111 3.25 11.6875 C-0.54324234 7.39514682 -3.29108641 5.23287792 -9.0625 4.5 C-14.50645316 4.80244184 -18.37833178 7.08429937 -22.0625 11.125 C-23.64976852 15.41996189 -23.7054396 19.47554772 -23.125 24 C-21.7740712 26.9254644 -21.7740712 26.9254644 -20.125 29 C-20.125 29.66 -20.125 30.32 -20.125 31 C-19.01125 31.433125 -19.01125 31.433125 -17.875 31.875 C-15.55760203 32.82302644 -13.34582885 33.84845911 -11.125 35 C-11.125 36.65 -11.125 38.3 -11.125 40 C-21.23099078 38.32667691 -21.23099078 38.32667691 -25.125 34 C-29.5819822 27.37008465 -31.61350168 20.96646098 -30.125 13 C-27.42396872 6.41830338 -23.03504862 2.53738417 -16.8125 -0.75 C-10.38170183 -2.92993158 -6.10472624 -2.70914388 0 0 Z " fill="#2D3EA9" transform="translate(102.125,179)"/>
<path d="M0 0 C3.39929868 2.15977541 5.98126108 4.94070698 8.12109375 8.34765625 C8.12109375 9.00765625 8.12109375 9.66765625 8.12109375 10.34765625 C5.37109375 10.66015625 5.37109375 10.66015625 2.12109375 10.34765625 C-0.00390625 7.97265625 -0.00390625 7.97265625 -1.87890625 5.34765625 C-6.06373966 2.75873388 -10.09049175 2.67428546 -14.87890625 3.34765625 C-19.26189708 5.53915167 -22.07965349 7.74956587 -23.87890625 12.34765625 C-24.6526071 18.66621319 -24.16671258 23.86797903 -20.87890625 29.34765625 C-17.52901593 32.45826869 -14.86617132 33.61347238 -10.37890625 33.84765625 C-5.94019787 33.64555654 -3.28979056 32.25938676 0.12109375 29.34765625 C0.78109375 28.35765625 1.44109375 27.36765625 2.12109375 26.34765625 C5.24609375 26.16015625 5.24609375 26.16015625 8.12109375 26.34765625 C6.55853538 31.81661053 3.04834244 34.53554992 -1.68359375 37.46484375 C-7.02681442 39.61354103 -14.00083723 39.40038793 -19.3671875 37.4375 C-24.69136915 34.31919399 -27.91526732 30.23857304 -29.87890625 24.34765625 C-30.56236527 17.21039139 -30.84863661 10.93382423 -26.4453125 5 C-18.75767063 -3.10940776 -9.97432428 -4.82294017 0 0 Z " fill="#0E185D" transform="translate(395.87890625,239.65234375)"/>
<path d="M0 0 C1.98 0 3.96 0 6 0 C6.33 0.99 6.66 1.98 7 3 C7.55945313 2.5153125 8.11890625 2.030625 8.6953125 1.53125 C12.5697255 -1.04293626 16.51491313 -0.76402111 21 0 C24.8872872 1.99917627 27.40111567 4.95216847 29 9 C29.22705078 11.56542969 29.22705078 11.56542969 29.1953125 14.421875 C29.18886719 15.44667969 29.18242187 16.47148437 29.17578125 17.52734375 C29.15902344 18.59082031 29.14226562 19.65429688 29.125 20.75 C29.11597656 21.82894531 29.10695313 22.90789062 29.09765625 24.01953125 C29.07411305 26.67991278 29.04122799 29.33984336 29 32 C27.35 32 25.7 32 24 32 C23.98018066 31.38479492 23.96036133 30.76958984 23.93994141 30.13574219 C23.84450273 27.34007458 23.73490045 24.5451349 23.625 21.75 C23.5940625 20.78191406 23.563125 19.81382812 23.53125 18.81640625 C23.49257813 17.88183594 23.45390625 16.94726562 23.4140625 15.984375 C23.36693115 14.69611816 23.36693115 14.69611816 23.31884766 13.38183594 C22.97789815 10.83489613 22.36225106 9.17016095 21 7 C18.67313547 5.83656773 17.15278587 5.80104012 14.5625 5.75 C13.38880859 5.71132812 13.38880859 5.71132812 12.19140625 5.671875 C9.39590423 6.09045284 8.71236404 6.77548507 7 9 C6.4959183 11.50873159 6.4959183 11.50873159 6.48828125 14.32421875 C6.45283203 15.35224609 6.41738281 16.38027344 6.38085938 17.43945312 C6.35830078 18.51130859 6.33574219 19.58316406 6.3125 20.6875 C6.27833984 21.77095703 6.24417969 22.85441406 6.20898438 23.97070312 C6.1264544 26.6470322 6.05732063 29.32303159 6 32 C4.02 32 2.04 32 0 32 C0 21.44 0 10.88 0 0 Z " fill="#182264" transform="translate(317,246)"/>
<path d="M0 0 C3.56404685 1.00923657 5.29739962 2.70398387 7.41796875 5.68359375 C9.01700468 8.89420706 8.98774562 11.17775245 8.4140625 14.68359375 C7.12888517 18.20092117 6.04158762 20.16065615 3.1640625 22.55859375 C-0.37784425 24.0075556 -2.78838201 24.15828819 -6.5859375 23.68359375 C-10.52830905 21.31817082 -12.44591179 19.14005788 -13.5859375 14.68359375 C-14.25582486 10.16185404 -13.83897257 7.42088855 -11.2109375 3.74609375 C-7.83389055 0.21699966 -4.79018339 -0.3545604 0 0 Z " fill="#F6F6F9" transform="translate(338.5859375,198.31640625)"/>
<path d="M0 0 C2.87029869 1.79393668 4.49131638 2.98263276 6 6 C6.42308538 10.59698532 6.53894467 14.70653278 4.75 19 C1.83574748 22.33057431 -0.02942372 22.89411895 -4.4375 23.375 C-8.60997321 22.93579229 -10.07047808 21.92952192 -13 19 C-15.69000043 14.96499935 -15.678474 11.74124093 -15 7 C-11.23445152 -0.02902384 -7.62365123 -0.98751959 0 0 Z " fill="#F8F8FA" transform="translate(298,251)"/>
<path d="M0 0 C2.87029869 1.79393668 4.49131638 2.98263276 6 6 C6.60217655 10.78300232 6.94928228 15.48529203 4.0625 19.5625 C0.62854976 22.29564407 -1.46067974 23.08189358 -5.77734375 23.3125 C-9.67346466 22.76471499 -11.35907923 20.83898983 -14 18 C-15.73348019 14.53303962 -15.47699379 10.79051063 -15 7 C-11.23445152 -0.02902384 -7.62365123 -0.98751959 0 0 Z " fill="#F9F9FB" transform="translate(429,251)"/>
<path d="M0 0 C3.59542248 0.80882246 5.23555487 2.63126083 7.37890625 5.53515625 C8.91488079 8.60710533 8.60541005 11.13759918 8.37890625 14.53515625 C7.07958682 18.09118839 6.0092978 20.02402796 3.06640625 22.41015625 C-0.14395769 23.75402953 -2.16856571 23.96672225 -5.62109375 23.53515625 C-9.42591195 21.80569343 -11.07080113 20.37332565 -12.62109375 16.53515625 C-13.36784307 11.77168167 -13.51942197 7.02604973 -10.74609375 2.91015625 C-6.93673525 0.01504379 -4.68826371 -0.27249223 0 0 Z " fill="#F9F9FB" transform="translate(271.62109375,198.46484375)"/>
<path d="M0 0 C3.00099588 -0.10890711 5.99796378 -0.18773555 9 -0.25 C9.83917969 -0.28351563 10.67835938 -0.31703125 11.54296875 -0.3515625 C18.18440847 -0.45453056 23.58433569 0.83361139 28.56225586 5.44824219 C33.36135995 10.86331508 33.34930445 15.97754435 33.28125 22.953125 C32.74984477 28.71001501 30.54226339 32.41819139 26.5625 36.5 C23.70028039 38.17544563 22.2540617 38.6156333 19 38 C18.34 37.01 17.68 36.02 17 35 C17.9075 34.62875 18.815 34.2575 19.75 33.875 C23.73061608 31.57849072 25.08570572 30.19672208 27 26 C27.75661264 20.37172843 27.74883445 15.64167553 25.375 10.4375 C19.41911007 4.32487613 13.16213818 4.45345212 5 4 C5 10.93 5 17.86 5 25 C0 21 0 21 -0.56762695 18.61816406 C-0.54144287 17.75932617 -0.51525879 16.90048828 -0.48828125 16.015625 C-0.47216797 15.08105469 -0.45605469 14.14648438 -0.43945312 13.18359375 C-0.39755859 12.21550781 -0.35566406 11.24742187 -0.3125 10.25 C-0.28994141 9.26644531 -0.26738281 8.28289062 -0.24414062 7.26953125 C-0.18528805 4.8448053 -0.10313431 2.42318017 0 0 Z " fill="#071258" transform="translate(164,238)"/>
<path d="M0 0 C3.68623011 1.61272567 4.75355 2.630325 7 6 C7 7.32 7 8.64 7 10 C5.35 10 3.7 10 2 10 C1.67 8.68 1.34 7.36 1 6 C-2.3 6 -5.6 6 -9 6 C-9.33 7.65 -9.66 9.3 -10 11 C-9.34773437 11.25394531 -8.69546875 11.50789063 -8.0234375 11.76953125 C5.55922865 17.1184573 5.55922865 17.1184573 7 20 C7.5801105 26.26519337 7.5801105 26.26519337 5.125 29.375 C0.45892921 32.94317178 -4.31034539 32.44399039 -10 32 C-13.0625 30.875 -13.0625 30.875 -15 29 C-16.3125 25.8125 -16.3125 25.8125 -17 23 C-14.1875 22.75 -14.1875 22.75 -11 23 C-10.525625 23.66 -10.05125 24.32 -9.5625 25 C-8.7890625 25.99 -8.7890625 25.99 -8 27 C-3.34602225 27.41955355 -3.34602225 27.41955355 1 26 C1 24.35 1 22.7 1 21 C0.19175781 20.75765625 -0.61648437 20.5153125 -1.44921875 20.265625 C-13.220351 16.57383443 -13.220351 16.57383443 -16 13 C-16.5836113 9.65749891 -16.84703072 8.12226652 -16 5 C-11.56974149 -0.59611602 -6.88021538 -1.06821374 0 0 Z " fill="#0F195E" transform="translate(253,246)"/>
<path d="M0 0 C0 1.65 0 3.3 0 5 C-0.804375 5.226875 -1.60875 5.45375 -2.4375 5.6875 C-3.283125 6.120625 -4.12875 6.55375 -5 7 C-5.89386164 9.54775306 -5.89386164 9.54775306 -6 12 C-3.69 12 -1.38 12 1 12 C1 13.65 1 15.3 1 17 C-1.31 17 -3.62 17 -6 17 C-6 25.91 -6 34.82 -6 44 C-7.65 44 -9.3 44 -11 44 C-11 35.09 -11 26.18 -11 17 C-12.32 17 -13.64 17 -15 17 C-15 15.35 -15 13.7 -15 12 C-13.68 12 -12.36 12 -11 12 C-11.185625 10.4221875 -11.185625 10.4221875 -11.375 8.8125 C-11 5 -11 5 -8.3125 2.0625 C-5.03923099 0.02442685 -3.73296197 -0.548965 0 0 Z " fill="#0B165B" transform="translate(303,182)"/>
<path d="M0 0 C1.65 0 3.3 0 5 0 C5 14.19 5 28.38 5 43 C3.35 43 1.7 43 0 43 C0 28.81 0 14.62 0 0 Z " fill="#020D55" transform="translate(309,183)"/>
<path d="M0 0 C0 1.65 0 3.3 0 5 C-0.928125 5.268125 -1.85625 5.53625 -2.8125 5.8125 C-5.90139303 6.96326407 -7.05863732 7.45834052 -9 10 C-9.50330762 12.41063442 -9.50330762 12.41063442 -9.51171875 15.10546875 C-9.56489258 16.57983398 -9.56489258 16.57983398 -9.61914062 18.08398438 C-9.65297852 19.62022461 -9.65297852 19.62022461 -9.6875 21.1875 C-9.72166016 22.22326172 -9.75582031 23.25902344 -9.79101562 24.32617188 C-9.87352642 26.8840066 -9.94266572 29.44149723 -10 32 C-11.65 32 -13.3 32 -15 32 C-15 21.77 -15 11.54 -15 1 C-13.35 1 -11.7 1 -10 1 C-9.67 1.66 -9.34 2.32 -9 3 C-8.443125 2.505 -7.88625 2.01 -7.3125 1.5 C-4.61837017 -0.24754367 -3.14624993 -0.26218749 0 0 Z " fill="#051057" transform="translate(375,194)"/>
<path d="M0 0 C3.3125 1.625 3.3125 1.625 6 4 C6.33 5.98 6.66 7.96 7 10 C0.4 10 -6.2 10 -13 10 C-12 5 -12 5 -9.3125 2.1875 C-5.63715683 -0.23961341 -4.28609173 -0.8036422 0 0 Z " fill="#F0F1F5" transform="translate(235,198)"/>
<path d="M0 0 C1.65 0 3.3 0 5 0 C5 10.23 5 20.46 5 31 C3.35 31 1.7 31 0 31 C0 20.77 0 10.54 0 0 Z " fill="#040E56" transform="translate(267,247)"/>
<path d="M0 0 C2.5 1.75 2.5 1.75 4 4 C4 5.65 4 7.3 4 9 C-2.27 9 -8.54 9 -15 9 C-14 3 -14 3 -11.4375 0.5625 C-7.19014681 -1.36811509 -4.40194709 -1.4610718 0 0 Z " fill="#F3F4F7" transform="translate(222,251)"/>
<path d="M0 0 C3.125 1.6875 3.125 1.6875 5 4 C5 5.65 5 7.3 5 9 C-1.27 9 -7.54 9 -14 9 C-13 3 -13 3 -11.7421875 1.15234375 C-8.2275792 -1.17234111 -4.02392098 -0.57667657 0 0 Z " fill="#F7F7F9" transform="translate(398,199)"/>
<path d="M0 0 C2.125 0.375 2.125 0.375 4 1 C4.38218767 2.65614657 4.71395102 4.32457024 5 6 C4 7 4 7 1.4375 7.0625 C0.2309375 7.0315625 0.2309375 7.0315625 -1 7 C-1.625 4.625 -1.625 4.625 -2 2 C-1.34 1.34 -0.68 0.68 0 0 Z " fill="#162062" transform="translate(268,234)"/>
</svg>
