<svg xmlns="http://www.w3.org/2000/svg"
shape-rendering="geometricPrecision"
width="4000" height="4000" viewBox="0 0 520 520">
  <metadata>null</metadata>

<path d="
M 23.721 344.343
C 28.304 344.482 33.358 343.791 37.875 344.621
C 40.293 354.329 42.951 364.009 45.611 373.664
C 46.53 377.002 47.08 381.877 49.075 384.729
C 49.832 383.355 50.017 381.482 50.335 379.947
C 50.903 377.206 51.609 374.483 52.293 371.769
C 54.571 362.731 57.386 353.617 59.013 344.443
C 61.924 344.46 64.845 344.466 67.76 344.448
C 69.427 344.438 71.304 344.188 72.937 344.566
C 75.092 353.301 77.53 361.978 79.701 370.713
C 80.813 375.188 81.548 380.578 83.583 384.716
C 85.261 380.568 85.986 375.794 87.084 371.451
C 89.341 362.519 91.422 353.374 94.181 344.586
C 95.367 344.092 97.228 344.46 98.512 344.458
C 101.661 344.451 105.01 344.717 108.132 344.354
C 108.288 345.318 107.134 347.256 106.843 348.256
C 105.707 352.162 104.372 356.009 103.215 359.909
C 100.874 367.795 98.417 375.64 96.206 383.564
C 94.723 388.878 93.612 394.451 91.724 399.636
C 88.06 400.138 84.134 399.711 80.443 399.695
C 78.882 399.688 76.785 400.073 75.313 399.624
C 74.843 395.224 73.095 390.624 72.007 386.324
C 70.083 378.721 68.372 370.765 65.795 363.371
C 63.704 375.573 59.624 387.618 56.713 399.655
C 51.36 400.572 45.593 398.949 40.235 399.611
C 38.267 394.089 36.848 388.208 35.252 382.558
C 33.135 375.067 30.675 367.663 28.48 360.19
C 27.38 356.448 26.215 352.734 25.045 349.014
C 24.623 347.669 23.559 345.695 23.721 344.343 Z"
opacity="1" fill="rgb(253,251,254)" fill-rule="evenodd" />
<path d="
M 42.685 465.643
C 45.083 465.478 47.509 465.59 49.913 465.575
C 51.439 465.565 53.302 465.513 54.658 466.33
C 55.989 467.132 57.131 471.31 55.975 472.476
C 55.452 472.739 55.023 472.996 54.552 473.352
C 55.108 474.641 56.726 475.302 57.093 476.697
C 57.679 478.925 55.874 481.498 53.756 482.146
C 50.304 483.202 46.27 482.174 42.727 482.495
C 42.195 476.952 42.775 471.209 42.685 465.643 Z
M 45.475 469.095
C 45.373 470.035 44.991 472.059 45.497 472.855
C 47.847 472.767 50.348 472.979 52.663 472.563
C 53.703 471.782 53.585 469.596 52.955 468.575
C 51.423 467.659 49.302 467.922 47.576 467.883
C 46.931 467.869 46.1 467.725 45.601 468.135
C 45.534 468.855 45.583 468.536 45.475 469.095 Z
M 45.472 476.101
C 45.332 477.445 45.385 478.815 45.664 480.134
C 47.605 480.389 51.267 480.65 53.021 479.606
C 54.73 478.589 54.64 476.175 52.913 475.238
C 51.053 474.229 47.728 475.048 45.679 475.074
C 45.527 475.895 45.603 475.554 45.472 476.101 Z"
opacity="0.996" fill="rgb(244,243,250)" fill-rule="evenodd" />
<path d="
M 60.817 470.826
C 61.625 470.693 62.421 470.678 63.237 470.631
C 64.381 473.428 62.246 477.088 63.955 479.851
C 65.66 481.205 68.473 479.741 70.267 479.254
C 70.097 476.414 70.825 473.272 70.288 470.517
C 71.23 470.338 72.09 470.363 73.04 470.339
C 73.279 473.364 73.045 476.467 73.125 479.505
C 73.135 479.9 73.355 482.292 73.088 482.357
C 72.2 482.35 71.302 482.344 70.421 482.461
C 70.231 482.073 70.219 481.107 69.98 480.841
C 69.602 480.417 68.051 482.154 67.719 482.341
C 66.471 483.041 64.458 482.759 63.172 482.33
C 59.963 481.26 60.758 477.18 60.689 474.542
C 60.657 473.333 60.399 471.966 60.817 470.826 Z"
opacity="0.996" fill="rgb(246,246,250)" fill-rule="evenodd" />
<path d="
M 77.958 466.628
C 77.978 466.451 77.999 466.274 78.019 466.097
C 78.746 465.415 79.383 465.408 80.337 465.599
C 80.558 466.515 80.667 467.405 80.729 468.341
C 79.852 468.408 78.955 468.182 78.097 468.014
C 78.016 467.544 77.962 467.106 77.958 466.628 Z"
opacity="0.996" fill="rgb(210,210,228)" fill-rule="evenodd" />
<path d="
M 77.993 471.604
C 78.109 471.085 78.058 470.778 78.355 470.312
C 79.098 470.314 79.798 470.313 80.534 470.426
C 80.958 471.56 80.686 473.076 80.655 474.268
C 80.585 476.873 80.403 479.757 80.808 482.333
C 79.885 482.289 78.944 482.24 78.024 482.31
C 77.216 479.108 77.884 474.91 77.993 471.604 Z"
opacity="1" fill="rgb(236,232,245)" fill-rule="evenodd" />
<path d="
M 85.721 464.674
C 86.563 464.563 87.396 464.577 88.245 464.603
C 88.682 465.911 88.35 467.623 88.344 468.995
C 88.332 471.83 88.32 474.667 88.354 477.501
C 88.37 478.755 88.957 481.222 88.449 482.303
C 87.506 482.264 86.555 482.214 85.613 482.235
C 85.572 476.383 85.746 470.525 85.721 464.674 Z"
opacity="1" fill="rgb(247,245,252)" fill-rule="evenodd" />
<path d="
M 92.455 476.118
C 92.987 472.371 95.538 469.654 99.574 470.288
C 100.848 470.487 101.751 471.751 102.863 471.913
C 103.251 469.937 102.712 467.595 102.884 465.543
C 103.74 465.426 104.607 465.324 105.453 465.533
C 105.972 470.949 104.723 476.896 105.749 482.229
C 104.794 482.12 103.798 482.366 102.854 482.485
C 102.841 482.172 103.139 481.096 102.921 480.854
C 102.654 480.559 101.957 481.074 101.772 481.208
C 100.951 481.805 99.96 482.445 98.934 482.597
C 94.946 483.19 92.273 479.874 92.455 476.118 Z
M 95.359 475.033
C 94.366 479.164 97.334 481.402 101.028 479.47
C 101.566 479.189 102.494 478.892 102.843 478.397
C 102.797 477.02 103.007 475.364 102.457 474.077
C 100.291 471.693 96.568 471.837 95.359 475.033 Z"
opacity="0.996" fill="rgb(240,242,251)" fill-rule="evenodd" />
<path d="
M 110.469 466.114
C 110.534 465.88 110.598 465.647 110.663 465.413
C 111.571 465.302 112.295 465.339 113.191 465.433
C 113.38 466.346 113.286 467.361 113.202 468.289
C 112.547 468.64 111.428 468.244 110.767 468.009
C 110.574 467.358 110.437 466.794 110.469 466.114 Z"
opacity="1" fill="rgb(220,231,244)" fill-rule="evenodd" />
<path d="
M 110.854 470.471
C 111.625 470.394 112.375 470.322 113.148 470.365
C 113.663 471.054 113.303 472.654 113.303 473.503
C 113.3 476.169 113.883 479.63 113.371 482.206
C 112.457 482.217 111.544 482.149 110.631 482.199
C 110.723 479.488 110.705 476.738 110.66 474.024
C 110.642 472.927 110.386 471.473 110.854 470.471 Z"
opacity="1" fill="rgb(238,239,252)" fill-rule="evenodd" />
<path d="
M 118.381 470.42
C 119.144 470.318 119.86 470.267 120.631 470.271
C 120.98 470.714 121.029 471.239 121.164 471.778
C 121.771 472.211 122.679 471.154 123.206 470.83
C 124.124 470.265 125.448 470.036 126.517 470.209
C 132.078 471.113 129.691 478.427 130.626 482.296
C 129.622 482.233 128.583 482.172 127.576 482.246
C 127.148 479.743 128.006 477.076 127.459 474.543
C 127.158 473.154 125.65 472.159 124.278 472.49
C 123.765 472.614 123.315 472.843 122.853 473.092
C 122.112 473.492 121.513 473.904 120.961 474.546
C 120.736 476.845 120.525 480.012 121.109 482.265
C 120.126 482.31 119.146 482.156 118.162 482.195
C 118.056 479.631 118.074 477.064 118.063 474.496
C 118.057 473.187 117.844 471.636 118.381 470.42 Z"
opacity="1" fill="rgb(238,234,247)" fill-rule="evenodd" />
<path d="
M 119.886 344.99
C 119.956 344.818 120.026 344.647 120.097 344.476
C 124.647 344.004 129.433 344.439 134.013 344.434
C 141.934 344.425 149.894 344.238 157.809 344.51
C 157.459 348.168 158.084 351.938 157.79 355.606
C 149.461 356.183 141.006 355.095 132.662 355.684
C 132.744 359.329 132.676 362.975 132.732 366.621
C 134.196 367.392 137.317 366.743 138.999 366.747
C 144.295 366.761 149.596 366.861 154.888 366.891
C 154.833 370.248 155.423 374.204 154.761 377.492
C 147.493 377.911 139.965 376.696 132.714 377.695
C 132.747 381.51 132.621 385.339 132.766 389.151
C 134.216 389.986 137.794 389.283 139.503 389.288
C 143.671 389.3 147.841 389.331 152.008 389.403
C 153.969 389.436 156.206 389.129 158.112 389.623
C 158.015 392.976 157.98 396.412 158.092 399.771
C 157.212 400.12 155.629 399.8 154.684 399.797
C 152.124 399.789 149.564 399.789 147.004 399.79
C 141.004 399.793 135.004 399.78 129.005 399.777
C 126.048 399.776 122.954 400.079 120.019 399.794
C 119.745 381.546 119.765 363.244 119.886 344.99 Z"
opacity="1" fill="rgb(253,251,254)" fill-rule="evenodd" />
<path d="
M 133.935 475.095
C 135.204 469.916 140.417 469.087 144.177 472.359
C 144.297 471.692 144.522 471.084 144.754 470.448
C 145.708 470.369 146.539 470.503 147.405 470.936
C 147.34 474.12 147.245 477.317 147.312 480.503
C 147.344 482.03 147.737 484.269 147.005 485.673
C 145.652 488.269 141.678 488.479 139.174 488.087
C 137.73 487.861 136.437 487.556 135.104 486.948
C 134.536 486.265 134.542 485.252 134.923 484.474
C 138.568 484.602 140.753 487.506 144.405 484.91
C 144.943 483.663 144.658 482.375 144.717 481.08
C 143.288 481.7 141.59 482.648 140.011 482.681
C 135.841 482.765 133.267 478.989 133.935 475.095 Z
M 136.475 476.106
C 136.409 480.434 141.399 481.537 144.334 478.901
C 144.443 477.341 144.484 475.607 144.159 474.074
C 141.537 472.065 136.891 472.107 136.475 476.106 Z"
opacity="0.996" fill="rgb(239,232,248)" fill-rule="evenodd" />
<path d="
M 139.811 419.2
C 145.394 419.364 153.002 417.792 157.858 421.174
C 164.25 425.625 164.912 437.27 158.234 441.849
C 154.592 444.347 150.008 444.212 145.771 444.201
C 143.899 444.196 141.787 444.308 139.954 443.998
C 139.732 435.749 140.262 427.442 139.811 419.2 Z
M 144.708 423.2
C 144.469 428.859 144.809 434.531 144.75 440.193
C 147.849 440.998 153.273 440.566 155.759 438.407
C 159.132 435.48 159.083 428.475 156.025 425.323
C 153.168 422.38 148.382 423.445 144.708 423.2 Z"
opacity="0.996" fill="rgb(252,249,253)" fill-rule="evenodd" />
<path d="
M 158.375 123.484
C 159.048 122.438 160.588 124.056 161.5 124.719
C 164.163 126.653 166.924 128.491 169.697 130.263
C 177.522 135.262 184.961 140.816 192.699 145.937
C 195.476 147.776 198.217 149.677 201.017 151.479
C 202.438 152.393 204.349 153.205 205.413 154.534
C 205.37 165.4 205.557 176.273 205.609 187.139
C 205.636 192.793 204.83 199.032 205.736 204.612
C 207.376 206.328 209.93 207.452 211.876 208.812
C 216.62 212.129 221.337 215.494 226.204 218.632
C 228.845 220.334 232.333 221.959 234.571 224.145
C 235.342 237.711 234.428 251.457 234.577 265.034
C 234.621 269.019 234.336 273.106 234.661 277.076
C 236.048 278.841 239.045 280.191 240.944 281.39
C 245.886 284.507 251.976 287.483 256.039 291.72
C 256.057 291.712 255.908 290.737 255.896 290.614
C 255.761 289.246 255.709 287.875 255.726 286.5
C 255.792 281.002 255.762 275.499 255.751 270
C 255.719 253.668 255.675 237.334 255.719 221.002
C 255.733 215.835 255.751 210.668 255.767 205.502
C 255.774 203.046 256.217 200.077 255.63 197.693
C 252.58 194.795 248.328 192.764 244.868 190.361
C 237.123 184.983 229.345 179.602 221.432 174.478
C 220.656 171.33 221.378 167.362 221.305 164.113
C 221.662 163.714 223.043 164.977 223.49 165.311
C 225.745 166.993 228.011 168.61 230.358 170.164
C 237.301 174.762 244.049 179.666 250.999 184.257
C 253.048 185.611 255.086 186.985 257.135 188.339
C 258.139 189.002 259.277 189.981 260.45 190.286
C 263.996 188.595 267.249 185.619 270.519 183.433
C 277.639 178.672 284.862 174.068 291.943 169.245
C 307.417 158.706 323.055 148.402 338.633 138.017
C 346.326 132.889 353.804 127.382 361.663 122.527
C 362.191 125.213 361.792 128.271 361.792 131.005
C 361.791 136.504 361.782 142.004 361.779 147.503
C 361.769 164.503 361.78 181.503 361.761 198.503
C 361.752 207.003 361.758 215.503 361.771 224.003
C 361.776 226.67 361.78 229.337 361.767 232.004
C 361.761 233.327 362.005 234.927 361.668 236.204
C 357.65 239.535 352.831 242.023 348.493 244.936
C 341.147 249.869 333.834 254.853 326.401 259.656
C 304.189 274.007 282.593 289.316 260.336 303.604
C 259.704 303.766 259.029 303.133 258.527 302.806
C 257.177 301.928 255.879 300.979 254.499 300.146
C 248.391 296.461 242.547 292.313 236.542 288.463
C 218.274 276.748 200.479 264.298 182.449 252.233
C 176.922 248.534 171.444 244.761 165.864 241.142
C 164.236 240.086 162.664 238.944 161.03 237.898
C 160.181 237.354 158.921 236.835 158.302 236.047
C 157.929 229.741 158.284 223.317 158.287 216.999
C 158.291 204.499 158.297 191.999 158.278 179.5
C 158.258 167.333 158.251 155.166 158.263 142.999
C 158.269 136.521 157.926 129.948 158.375 123.484 Z
M 166.782 138.347
C 167.063 146.042 166.76 153.802 166.739 161.506
C 166.7 176.004 166.708 190.505 166.737 205.004
C 166.749 211.17 166.764 217.336 166.737 223.502
C 166.727 225.756 165.948 229.565 166.824 231.598
C 170.965 235.014 176 237.692 180.45 240.709
C 190.855 247.763 201.291 254.777 211.661 261.881
C 214.787 264.023 217.967 266.082 221.105 268.203
C 222.73 269.302 224.667 270.223 226.089 271.58
C 226.48 270.519 226.152 268.929 226.143 267.807
C 226.119 264.872 226.138 261.936 226.142 259.001
C 226.152 252.502 226.151 246.002 226.152 239.503
C 226.153 235.938 226.412 232.214 226.015 228.67
C 225.386 227.82 224.236 227.321 223.369 226.732
C 221.341 225.353 219.287 224.013 217.261 222.631
C 210.553 218.056 203.928 213.223 197.008 208.981
C 196.442 207.963 196.772 205.901 196.767 204.712
C 196.753 201.474 196.799 198.236 196.805 194.999
C 196.827 183.058 196.307 170.99 196.89 159.065
C 187.217 151.709 176.168 146.101 166.782 138.347 Z
M 264.341 197.951
C 263.471 200.531 264.212 204.281 264.231 207.006
C 264.276 213.338 264.255 219.672 264.26 226.004
C 264.27 240.504 264.295 255.003 264.258 269.503
C 264.245 274.337 264.252 279.171 264.265 284.004
C 264.272 286.353 263.937 289.094 264.393 291.39
C 266.974 289.8 269.308 287.645 271.897 285.993
C 276.385 283.128 281.235 280.326 285.394 277.002
C 285.979 276.224 285.556 274.446 285.561 273.498
C 285.575 270.166 285.642 266.834 285.659 263.501
C 285.722 250.601 285.905 237.657 285.61 224.76
C 287.373 223.073 290.074 221.853 292.135 220.521
C 295.666 218.238 299.12 215.842 302.609 213.498
C 314.503 205.506 326.352 197.41 338.355 189.581
C 341.61 187.458 344.872 185.349 348.134 183.236
C 349.813 182.149 351.765 181.203 353.192 179.786
C 353.762 174.299 353.284 168.517 353.273 162.999
C 353.259 154.89 353.525 146.721 353.268 138.619
C 345.784 144.13 337.714 149.047 329.924 154.127
C 315.064 163.817 300.441 173.886 285.649 183.681
C 278.599 188.35 270.96 192.69 264.341 197.951 Z
M 293.912 230.088
C 293.533 243.83 293.986 257.614 293.972 271.357
C 295.213 270.791 296.344 269.683 297.479 268.91
C 300.631 266.763 303.845 264.702 306.997 262.553
C 317.098 255.668 327.292 248.909 337.406 242.046
C 340.925 239.659 344.452 237.277 348.002 234.936
C 349.611 233.874 352.044 232.849 353.271 231.362
C 353.931 217.535 353.17 203.598 353.357 189.755
C 351.686 190.092 349.714 192.164 348.276 193.091
C 344.203 195.715 340.176 198.421 336.163 201.135
C 326.911 207.392 317.566 213.519 308.25 219.678
C 303.628 222.734 298.283 225.518 294.143 229.205
C 293.906 229.767 293.984 229.473 293.912 230.088 Z"
opacity="1" fill="rgb(66,136,249)" fill-rule="evenodd" />
<path d="
M 158.951 465.853
C 160.072 465.242 161.715 465.424 162.963 465.389
C 165.176 465.328 167.909 465.08 170.018 465.908
C 173.006 467.082 172.949 471.32 171.37 473.524
C 171.557 474.269 172.331 474.616 172.767 475.244
C 173.282 475.987 173.38 477.148 173.396 478.021
C 173.435 480.006 171.86 481.593 170.029 482.118
C 166.608 483.098 162.439 482.261 158.901 482.456
C 158.62 480.888 158.988 479.106 158.97 477.507
C 158.928 473.624 158.85 469.735 158.951 465.853 Z
M 161.834 467.801
C 161.905 469.279 161.732 470.779 161.744 472.265
C 162.404 472.589 163.477 472.341 164.2 472.315
C 166.004 472.251 167.926 472.46 169.708 472.223
C 169.971 470.813 169.757 469.269 168.919 468.084
C 166.935 467.206 163.95 467.693 161.834 467.801 Z
M 161.896 474.81
C 161.939 476.368 161.463 478.434 162.032 479.907
C 164.134 479.807 167.36 480.758 169.282 479.783
C 170.995 478.914 171.107 475.651 169.259 474.823
C 167.491 474.031 163.789 474.616 161.896 474.81 Z"
opacity="0.996" fill="rgb(242,230,251)" fill-rule="evenodd" />
<path d="
M 172.467 419.321
C 176.55 419.135 180.657 419.202 184.749 419.201
C 186.094 419.2 188.595 418.762 189.809 419.323
C 189.793 420.638 189.815 421.954 189.823 423.268
C 185.683 423.273 181.444 423.559 177.318 423.289
C 177.308 425.497 177.247 427.723 177.475 429.92
C 181.154 429.934 184.894 429.558 188.564 429.854
C 188.733 430.76 188.866 432.676 188.31 433.454
C 185.879 433.301 183.362 433.526 180.923 433.572
C 179.811 433.592 178.431 433.379 177.423 433.869
C 177.316 435.44 176.664 439.003 177.482 440.359
C 180.225 440.201 182.996 440.266 185.745 440.233
C 187.048 440.217 188.623 439.97 189.893 440.263
C 189.835 441.562 189.984 442.914 189.853 444.202
C 184.143 444.336 178.366 444.255 172.656 444.162
C 172.774 435.897 172.361 427.6 172.467 419.321 Z"
opacity="0.996" fill="rgb(251,246,252)" fill-rule="evenodd" />
<path d="
M 173.532 345.627
C 173.627 345.042 173.592 345.389 173.581 344.582
C 174.665 344.008 176.307 344.329 177.507 344.347
C 180.473 344.393 183.441 344.375 186.408 344.392
C 196.337 344.447 211.608 341.905 216.487 353.161
C 217.062 354.487 217.482 355.977 217.647 357.413
C 218.121 361.522 217.153 365.923 214.174 368.94
C 213.043 370.085 211.081 370.741 210.224 372.038
C 212.867 373.145 215.068 374.239 216.708 376.742
C 221.293 383.74 218.578 394.037 211.278 397.833
C 207.006 400.055 202.182 399.853 197.502 399.855
C 189.589 399.859 181.446 399.322 173.56 399.906
C 173.697 386.261 173.496 372.598 173.603 358.949
C 173.637 354.518 173.266 350.03 173.532 345.627 Z
M 186.422 356.084
C 186.086 359.739 186.299 363.605 186.553 367.261
C 189.721 367.496 193.001 367.344 196.181 367.318
C 198.193 367.302 200.425 367.327 202.232 366.318
C 205.694 364.386 205.806 358.502 202.49 356.324
C 200.779 355.202 198.657 355.273 196.692 355.274
C 193.298 355.276 189.892 355.284 186.501 355.445
C 186.475 355.658 186.448 355.871 186.422 356.084 Z
M 186.413 378.605
C 186.104 382.021 186.02 386 186.504 389.399
C 190.09 389.095 193.835 389.496 197.44 389.497
C 199.463 389.498 201.662 389.568 203.454 388.493
C 207.144 386.281 206.754 380.092 202.909 378.314
C 200.613 377.252 197.858 377.54 195.406 377.608
C 192.429 377.69 189.389 377.526 186.432 377.898
C 186.426 378.134 186.42 378.369 186.413 378.605 Z"
opacity="1" fill="rgb(253,251,254)" fill-rule="evenodd" />
<path d="
M 176.43 475.611
C 177.125 467.25 190.478 468.816 189.898 476.958
C 189.307 485.249 175.724 484.092 176.43 475.611 Z
M 179.381 474.533
C 178.912 475.961 178.867 477.542 179.686 478.848
C 180.432 479.698 181.33 480.212 182.461 480.353
C 183.251 480.452 184.096 480.477 184.846 480.17
C 190.115 478.017 185.198 469.421 180.587 472.981
C 180.031 473.41 179.676 473.901 179.381 474.533 Z"
opacity="0.996" fill="rgb(248,236,254)" fill-rule="evenodd" />
<path d="
M 193.88 464.981
C 194.639 464.87 195.393 464.862 196.16 464.844
C 196.814 465.621 196.275 468.439 196.281 469.508
C 196.297 472.433 196.221 475.415 196.472 478.331
C 196.58 479.587 197.03 481.011 196.917 482.257
C 195.925 482.27 194.739 482.366 193.778 482.134
C 193.984 476.585 193.816 470.87 193.669 465.316
C 193.739 465.204 193.81 465.093 193.88 464.981 Z"
opacity="1" fill="rgb(248,238,251)" fill-rule="evenodd" />
<path d="
M 198.168 437.325
C 199.502 437.232 201.09 436.537 202.399 437.015
C 204.441 439.964 207.545 441.356 211.103 440.438
C 212.872 439.981 214.66 439.039 214.43 436.873
C 214.189 434.606 210.8 434.108 209.077 433.902
C 204.187 433.319 198.893 431.409 199.306 425.526
C 199.377 424.514 199.623 423.533 200.146 422.656
C 202.852 418.116 210.473 417.869 214.755 420.118
C 216.494 421.032 217.742 422.438 218.318 424.327
C 218.463 424.803 218.905 425.883 218.609 426.356
C 217.734 426.586 215.119 427.17 214.406 426.556
C 213.063 422.474 206.818 420.885 204.061 424.541
C 202.592 427.917 206.184 429.213 208.751 429.728
C 213.169 430.614 219.214 431.106 219.077 437.011
C 219.059 437.788 218.986 438.582 218.761 439.329
C 216.951 445.321 206.504 445.679 202.03 442.863
C 200.031 441.606 198.942 439.47 198.168 437.325 Z"
opacity="1" fill="rgb(251,243,253)" fill-rule="evenodd" />
<path d="
M 200.95 474.067
C 202.269 471.006 204.971 469.588 208.239 470.536
C 208.77 470.69 210.9 472.067 211.223 471.939
C 211.432 469.846 211.235 467.489 211.1 465.389
C 211.543 465.097 213.318 464.406 213.76 464.908
C 214.034 468.073 213.826 471.323 213.837 474.501
C 213.847 477.081 214.157 479.804 213.89 482.368
C 213.129 482.436 212.381 482.356 211.63 482.479
C 211.536 482.348 211.007 481.223 210.917 481.158
C 210.556 480.897 209.841 481.544 209.578 481.706
C 208.631 482.288 207.741 482.659 206.611 482.629
C 202.038 482.506 199.822 478.245 200.95 474.067 Z
M 203.431 475.064
C 203.296 475.788 203.263 476.48 203.353 477.214
C 203.901 481.696 208.492 480.284 211.036 478.816
C 211.286 477.711 211.392 474.655 210.594 473.781
C 208.529 471.519 204.471 472.234 203.431 475.064 Z"
opacity="0.996" fill="rgb(245,240,252)" fill-rule="evenodd" />
<path d="
M 205.302 73.892
C 221.543 86.26 239.467 96.441 256.035 108.361
C 256.151 108.345 255.94 106.665 255.93 106.492
C 255.858 105.16 255.833 103.838 255.836 102.505
C 255.847 98.506 255.883 94.507 255.9 90.508
C 255.951 78.342 255.878 66.176 255.905 54.009
C 255.92 47.004 256.24 39.897 255.916 32.907
C 258.597 32.519 261.985 32.653 264.666 33.064
C 264.462 50.026 264.711 67.032 264.711 84.004
C 264.711 89.17 264.705 94.337 264.693 99.503
C 264.686 102.263 264.973 105.211 264.512 107.94
C 265.54 107.573 266.576 106.369 267.518 105.749
C 270.328 103.897 273.138 102.044 275.941 100.179
C 284.387 94.559 292.779 88.87 301.179 83.185
C 305.456 80.29 309.864 76.398 314.639 74.405
C 314.39 88.418 314.609 102.478 314.596 116.502
C 314.589 123.344 315.147 130.593 314.327 137.39
C 313.492 138.72 310.765 139.768 309.431 140.613
C 305.87 142.868 302.393 145.252 298.883 147.583
C 286.044 156.107 273.089 164.462 260.716 173.66
C 259.774 173.782 257.578 171.826 256.815 171.287
C 253.612 169.023 250.337 166.803 247.042 164.675
C 237.54 158.538 228.167 152.2 218.787 145.878
C 215.833 143.888 212.881 141.886 209.916 139.914
C 208.455 138.941 206.631 138.194 205.295 137.088
C 204.857 134.691 205.184 131.939 205.187 129.499
C 205.192 124.833 205.186 120.167 205.198 115.5
C 205.232 101.633 205.105 87.753 205.302 73.892 Z
M 213.892 90.245
C 213.824 90.325 213.756 90.406 213.688 90.486
C 214.176 100.125 213.803 109.85 213.828 119.501
C 213.838 123.514 213.324 127.977 213.962 131.936
C 217.042 135.044 221.713 137.348 225.362 139.764
C 231.557 143.864 237.68 148.092 243.825 152.267
C 247.489 154.756 251.182 157.2 254.884 159.631
C 256.534 160.715 258.27 162.359 260.151 162.981
C 261.524 162.707 262.757 161.435 263.921 160.683
C 267.146 158.601 270.207 156.266 273.409 154.145
C 280.48 149.461 287.497 144.695 294.528 139.952
C 298.262 137.433 302.352 135.12 305.87 132.318
C 306.259 128.791 305.977 125.057 305.977 121.508
C 305.978 114.507 305.95 107.506 305.95 100.506
C 305.95 98.011 305.899 95.509 305.942 93.015
C 305.951 92.476 306.415 90.988 305.776 90.737
C 294.949 98.713 283.244 105.628 272.102 113.166
C 268.215 115.796 263.906 118.144 260.284 121.125
C 259.108 121.414 257.668 120.044 256.731 119.402
C 253.975 117.514 251.23 115.611 248.46 113.745
C 236.961 106.003 224.862 98.712 213.892 90.245 Z"
opacity="1" fill="rgb(6,189,246)" fill-rule="evenodd" />
<path d="
M 218.841 478.873
C 219.828 478.658 220.646 478.642 221.638 478.829
C 222.408 479.662 222.064 481.137 221.718 482.13
C 220.982 482.405 219.866 482.314 219.149 482.017
C 218.641 481.037 218.505 479.923 218.841 478.873 Z"
opacity="1" fill="rgb(251,241,250)" fill-rule="evenodd" />
<path d="
M 229.057 420.629
C 229.08 419.99 229.067 420.337 229.099 419.588
C 230.71 419.338 232.426 419.285 234.047 419.475
C 234.401 421.252 233.929 423.652 233.927 425.494
C 233.923 429.586 234.08 433.66 234.142 437.748
C 234.164 439.235 234.226 440.728 234.206 442.215
C 234.2 442.62 234.034 443.683 234.276 444.022
C 232.618 444.223 230.838 444.197 229.166 444.188
C 229.883 436.57 229.392 428.282 229.057 420.629 Z"
opacity="1" fill="rgb(240,230,241)" fill-rule="evenodd" />
<path d="
M 233.253 465.854
C 235.828 465.449 238.597 465.642 241.203 465.709
C 242.508 465.742 243.893 465.801 244.989 466.602
C 247.725 468.601 247.469 473.962 244.47 475.538
C 242.093 476.787 238.819 476.208 236.239 476.193
C 236.126 478.151 235.981 480.339 236.282 482.279
C 235.321 482.404 234.325 482.244 233.354 482.344
C 232.855 481.84 233.284 479.038 233.282 478.234
C 233.271 474.178 232.729 469.877 233.253 465.854 Z
M 236.032 469.082
C 235.989 470.573 235.95 472.156 236.069 473.636
C 237.796 474.255 242.233 474.353 243.778 473.258
C 244.347 471.996 244.361 470.222 243.65 469.018
C 241.711 467.686 238.836 468.247 236.598 468.134
C 235.964 468.751 236.087 468.404 236.032 469.082 Z"
opacity="0.996" fill="rgb(247,245,252)" fill-rule="evenodd" />
<path d="
M 234.437 345.028
C 234.476 344.852 234.515 344.676 234.554 344.5
C 239.678 343.719 245.322 344.309 250.505 344.307
C 257.6 344.304 264.949 343.786 272.015 344.425
C 272.089 348.075 272.099 351.735 272.174 355.392
C 270.308 355.77 267.925 355.401 266.008 355.385
C 262.01 355.353 258.008 355.371 254.009 355.388
C 251.982 355.397 248.692 354.794 246.986 355.927
C 246.842 360.133 247.01 364.463 247.179 368.672
C 254.079 369.184 261.154 368.636 268.08 368.791
C 268.107 371.356 268.173 373.934 268.175 376.507
C 268.175 377.112 268.51 379.063 268.108 379.487
C 263.112 379.83 258.014 379.496 253.004 379.564
C 251.191 379.589 248.653 379.162 246.957 379.83
C 246.79 384.082 246.984 388.373 247.048 392.63
C 247.081 394.887 246.756 397.549 247.177 399.756
C 243.016 400.402 238.645 399.499 234.46 399.889
C 233.625 393.131 234.412 385.816 234.399 379.002
C 234.377 367.717 233.899 356.299 234.437 345.028 Z"
opacity="1" fill="rgb(254,252,255)" fill-rule="evenodd" />
<path d="
M 243.94 428.585
C 244.712 425.905 245.727 423.458 247.911 421.585
C 252.247 417.867 260.038 417.779 264.522 421.281
C 266.849 423.099 266.816 425.321 268.173 427.62
C 267.23 427.837 264.454 428.284 263.693 427.741
C 261.807 423.04 255.645 420.878 251.529 424.387
C 249.201 426.372 248.34 429.514 248.454 432.493
C 248.525 434.339 249.136 436.387 250.28 437.852
C 254.295 442.995 262.076 440.512 263.935 434.914
C 261.664 434.632 259.19 434.663 256.901 434.644
C 256.137 433.792 256.333 432.333 256.341 431.25
C 257.402 430.82 258.873 431.069 260.008 431.094
C 262.712 431.155 265.84 430.816 268.466 431.499
C 270.174 438.412 262.799 444.491 256.494 444.592
C 247.688 444.733 242.529 436.877 243.94 428.585 Z"
opacity="1" fill="rgb(247,244,248)" fill-rule="evenodd" />
<path d="
M 250.426 470.815
C 251.292 470.648 252.114 470.741 252.95 471.012
C 253.296 471.416 253.497 471.82 253.777 472.261
C 254.302 472.503 255.126 470.683 255.431 470.285
C 256.136 470.081 256.804 470.184 257.518 470.336
C 258.055 470.911 257.872 472.036 257.641 472.731
C 256.677 473.441 254.74 473.487 253.574 473.975
C 252.531 476.211 253.425 479.719 253.315 482.151
C 252.354 482.294 251.369 482.245 250.403 482.364
C 250.21 481.084 250.521 479.706 250.534 478.415
C 250.558 475.869 250.285 473.362 250.426 470.815 Z"
opacity="1" fill="rgb(245,238,248)" fill-rule="evenodd" />
<path d="
M 259.968 476.121
C 259.976 470.849 266.373 468.459 270.498 471.424
C 272.288 472.711 272.899 474.634 272.872 476.762
C 272.806 481.92 266.146 484.575 262.19 481.399
C 260.661 480.172 259.965 478.038 259.968 476.121 Z
M 262.875 474.533
C 262.135 476.428 262.448 478.885 264.188 480.091
C 265.889 481.27 269.204 480.473 269.919 478.417
C 270.561 476.568 270.091 474.384 268.48 473.185
C 266.718 471.874 263.726 472.353 262.875 474.533 Z"
opacity="0.996" fill="rgb(248,243,252)" fill-rule="evenodd" />
<path d="
M 274.937 470.943
C 275.675 470.443 276.888 470.684 277.75 470.761
C 277.908 469.607 277.586 468.341 277.635 467.163
C 278.521 466.803 279.371 466.99 280.298 467.015
C 280.306 468.24 280.163 469.44 280.116 470.659
C 281.455 470.877 282.853 470.827 284.214 470.822
C 284.533 471.319 284.542 472.249 284.454 472.813
C 283.258 472.692 282.044 472.79 280.845 472.677
C 279.755 474.473 280.354 478.227 280.69 480.255
C 281.743 480.617 283.311 480.411 284.404 480.28
C 284.497 481.08 284.371 481.824 283.662 482.3
C 281.838 482.556 280.052 482.667 278.54 481.463
C 276.893 479.02 278.229 475.377 277.705 472.614
C 276.893 472.671 275.676 472.886 274.906 472.615
C 274.889 472.038 274.88 471.516 274.937 470.943 Z"
opacity="0.996" fill="rgb(248,245,249)" fill-rule="evenodd" />
<path d="
M 278.88 420.065
C 278.911 419.857 278.943 419.649 278.974 419.441
C 280.686 419.243 283.092 419.014 284.721 419.635
C 288.92 425.407 291.499 432.777 296.55 437.953
C 297.133 437.101 296.298 434.102 296.28 432.984
C 296.227 429.824 296.3 426.657 296.344 423.497
C 296.363 422.157 296.086 420.45 296.485 419.164
C 297.95 419.027 299.401 419.155 300.862 419.082
C 300.171 424.859 301.094 431.209 301.135 437.042
C 301.149 438.956 301.73 442.394 300.836 444.088
C 299.037 444.034 297.173 444.275 295.387 444.01
C 294.047 442.829 293.144 440.62 292.156 439.123
C 289.306 434.807 286.405 430.485 283.762 426.043
C 283.061 427.178 283.692 429.738 283.696 431.072
C 283.708 435.344 283.558 439.666 283.853 443.929
C 282.473 444.146 280.43 444.117 279.058 443.839
C 278.762 436.037 278.146 427.858 278.88 420.065 Z"
opacity="0.996" fill="rgb(247,244,249)" fill-rule="evenodd" />
<path d="
M 286.291 344.352
C 289.224 344.323 292.162 344.287 295.099 344.311
C 296.277 344.32 297.773 344.067 298.888 344.445
C 298.694 353.279 298.881 362.156 298.895 371
C 298.905 376.962 298.59 383.024 298.985 388.97
C 304.299 389.157 309.684 388.927 315.008 388.927
C 317.031 388.927 320.251 388.314 322.104 389.146
C 322.195 392.682 321.948 396.265 321.873 399.806
C 310.101 400.035 298.219 399.139 286.46 399.859
C 285.898 399.181 286.284 396.92 286.286 395.998
C 286.29 392.499 286.276 389 286.275 385.501
C 286.27 371.803 286.67 358.041 286.291 344.352 Z"
opacity="1" fill="rgb(253,251,254)" fill-rule="evenodd" />
<path d="
M 286.925 474.063
C 288.501 471.44 290.699 469.978 293.867 470.301
C 296.669 470.588 299.777 473.6 299.023 476.652
C 296.346 478.102 292.236 476.994 289.308 477.315
C 288.88 478.329 289.63 479.035 290.401 479.704
C 293.18 482.117 295.775 478.431 298.59 478.614
C 299.012 481.221 295.072 482.694 293.004 482.769
C 288.334 482.94 285.511 478.348 286.925 474.063 Z
M 289.413 474.567
C 289.254 475.204 289.151 474.967 289.533 475.332
C 291.188 475.42 292.836 475.394 294.491 475.285
C 295.117 475.244 296.05 475.444 296.487 474.921
C 296.443 474.255 295.905 473.74 295.42 473.328
C 293.335 471.557 290.844 472.457 289.413 474.567 Z"
opacity="0.996" fill="rgb(244,241,250)" fill-rule="evenodd" />
<path d="
M 301.917 474.574
C 303.116 471.186 306.3 469.831 309.741 470.553
C 311.44 470.91 314.284 472.701 313.788 474.815
C 313.061 474.973 311.877 475.214 311.215 474.768
C 309.857 473.852 309.072 472.097 307.119 472.527
C 303.617 473.299 303.217 478.845 306.536 480.13
C 309.391 481.236 311.439 478.42 314.107 478.179
C 315.053 480.255 311.171 482.114 309.627 482.527
C 304.446 483.911 300.927 479.43 301.917 474.574 Z"
opacity="0.996" fill="rgb(242,242,251)" fill-rule="evenodd" />
<path d="
M 315.978 470.93
C 316.903 470.711 317.799 470.785 318.737 470.71
C 319.073 469.744 318.657 468.294 318.761 467.241
C 319.512 467.111 320.416 466.997 321.018 467.523
C 321.185 468.504 321.083 469.507 321.343 470.48
C 322.284 470.576 323.191 470.408 324.116 470.209
C 324.644 470.822 324.66 471.915 324.759 472.7
C 323.663 472.611 322.405 472.542 321.344 472.842
C 321.171 475.271 321.339 477.718 321.304 480.151
C 322.204 480.914 324.086 479.538 324.904 480.435
C 324.93 481.089 324.883 481.704 324.756 482.344
C 323.385 482.997 320.291 482.626 319.21 481.544
C 317.831 479.448 318.563 475.346 318.545 472.893
C 317.708 472.541 316.719 472.798 315.831 472.636
C 315.671 471.81 315.535 471.729 315.978 470.93 Z"
opacity="0.996" fill="rgb(244,242,247)" fill-rule="evenodd" />
<path d="
M 323.97 430.117
C 324.51 426.983 325.202 423.876 327.667 421.621
C 331.771 417.866 339.494 417.771 343.819 421.203
C 345.848 422.812 347.006 425.233 347.778 427.649
C 346.214 427.311 344.365 427.892 342.746 427.674
C 340.855 421.941 332.288 421.307 329.552 426.759
C 326.287 433.268 330.906 442.499 338.892 440.058
C 340.802 439.475 341.615 437.937 342.87 436.551
C 344.543 436.441 346.31 436.78 347.96 436.44
C 345.002 444.609 333.786 446.997 327.473 441.141
C 324.564 438.443 323.585 433.961 323.97 430.117 Z"
opacity="1" fill="rgb(250,250,250)" fill-rule="evenodd" />
<path d="
M 328.401 466.619
C 328.43 466.428 328.46 466.237 328.489 466.046
C 329.242 465.335 329.966 465.267 330.966 465.475
C 331.417 466.289 331.208 467.372 331.18 468.271
C 330.427 468.452 329.431 468.11 328.712 467.9
C 328.528 467.449 328.439 467.103 328.401 466.619 Z"
opacity="0.996" fill="rgb(210,205,219)" fill-rule="evenodd" />
<path d="
M 328.505 471.624
C 328.558 471.048 328.528 471.37 328.596 470.656
C 329.332 470.255 330.253 470.333 331.067 470.387
C 331.402 471.593 331.186 473.031 331.168 474.277
C 331.129 476.919 331.105 479.65 331.265 482.283
C 330.409 482.178 329.394 482.387 328.633 481.974
C 328.401 478.568 328.444 475.038 328.505 471.624 Z"
opacity="0.996" fill="rgb(237,232,246)" fill-rule="evenodd" />
<path d="
M 331.847 399.71
C 333.34 396.033 334.254 392.13 335.576 388.389
C 338.889 379.012 342.107 369.597 345.464 360.234
C 346.768 356.596 347.993 352.914 349.209 349.246
C 349.716 347.716 349.968 345.638 350.942 344.35
C 354.925 344.084 359.013 344.339 363.008 344.342
C 363.92 344.343 366.69 343.939 367.262 344.595
C 371.979 358.445 376.192 372.595 381.41 386.262
C 382.695 389.628 383.848 393.087 384.979 396.507
C 385.196 397.162 386.353 399.213 385.957 399.74
C 382.91 400.404 379.116 399.818 375.995 399.817
C 375.106 399.817 373.406 400.152 372.703 399.657
C 371.745 396.018 370.489 392.281 369.061 388.807
C 362.588 388.036 355.435 388.634 348.913 388.776
C 347.763 391.475 347.033 394.346 346.039 397.105
C 345.704 398.036 345.501 399.411 344.848 400.157
C 340.497 400.086 336.086 399.852 331.749 400.083
C 331.781 399.959 331.814 399.834 331.847 399.71 Z
M 352.408 377.547
C 352.278 378.192 352.368 377.833 352.108 378.617
C 353.442 379.029 355.101 378.757 356.497 378.751
C 359.612 378.737 362.76 378.658 365.871 378.785
C 365.065 373.53 362.566 368.094 360.984 362.997
C 360.548 361.591 360.16 358.416 359.079 357.464
C 356.688 364.106 354.637 370.843 352.408 377.547 Z"
opacity="1" fill="rgb(252,250,254)" fill-rule="evenodd" />
<path d="
M 335.802 471.005
C 336.387 470.256 337.21 470.241 338.111 470.554
C 338.253 471.181 338.391 471.802 338.505 472.435
C 339.81 472.04 340.342 470.623 341.748 470.288
C 342.482 470.112 343.34 470.19 344.076 470.326
C 349.735 471.375 347.858 478.122 348.309 482.318
C 347.412 482.474 346.4 482.201 345.525 482
C 345.303 478.841 346.723 470.164 340.929 472.872
C 340.183 473.221 339.435 473.627 338.74 474.068
C 338.299 474.935 338.55 475.917 338.572 476.867
C 338.614 478.63 338.401 480.521 338.699 482.26
C 337.858 482.441 336.83 482.208 336.008 482.018
C 335.455 478.525 335.571 474.531 335.802 471.005 Z"
opacity="0.996" fill="rgb(245,240,248)" fill-rule="evenodd" />
<path d="
M 351.938 474.578
C 353.103 471.59 355.548 469.533 358.925 470.521
C 359.84 470.789 361.045 472.07 362.001 471.963
C 362.583 471.898 362.423 470.765 362.415 470.369
C 363.356 470.14 364.499 470.441 365.453 470.543
C 365.453 474.018 365.375 477.506 365.356 480.985
C 365.348 482.447 365.623 484.331 365.005 485.697
C 363.33 489.401 355.958 489.141 353.265 486.905
C 352.663 486.061 352.824 485.284 353.291 484.421
C 354.969 484.233 355.874 485.371 357.336 485.925
C 359.075 486.585 360.958 485.904 362.363 484.83
C 362.969 483.689 362.841 482.3 362.75 481.055
C 361.384 481.655 359.536 482.493 358.013 482.44
C 353.632 482.288 350.956 478.839 351.938 474.578 Z
M 354.415 475.563
C 353.952 479.556 357.101 480.997 360.539 479.873
C 361.154 479.672 362.086 479.521 362.441 478.953
C 362.286 477.511 362.815 475.101 362.093 473.861
C 359.353 472.403 355.618 471.957 354.415 475.563 Z"
opacity="0.996" fill="rgb(245,241,251)" fill-rule="evenodd" />
<path d="
M 355.964 428.596
C 357.421 419.325 368.932 415.593 376.297 420.933
C 380.331 423.858 381.952 429.039 381.258 433.857
C 379.936 443.036 368.683 447.422 361.089 442.273
C 356.686 439.287 355.171 433.647 355.964 428.596 Z
M 360.484 430.101
C 360.213 433.623 361.12 437.455 364.302 439.443
C 369.383 442.616 375.983 438.9 376.585 433.226
C 376.931 429.958 376.045 426.169 373.254 424.175
C 368.117 420.505 360.963 423.864 360.484 430.101 Z"
opacity="1" fill="rgb(252,251,252)" fill-rule="evenodd" />
<path d="
M 375.528 478.088
C 375.574 477.881 375.621 477.673 375.667 477.465
C 376.346 477.235 376.909 477.068 377.624 477.127
C 378.033 477.924 378.489 478.659 379.099 479.319
C 381.133 481.06 384.888 480.808 386.638 478.786
C 387.214 476.778 385.232 475.691 383.493 475.351
C 380.036 474.675 374.761 474.03 376.036 469.122
C 377.137 464.887 382.575 464.637 385.942 465.999
C 387.695 466.708 389.621 468.548 388.704 470.672
C 388.196 470.865 387.75 470.71 387.309 470.442
C 385.714 468.373 384.35 467.393 381.592 467.703
C 380.34 467.844 378.629 468.498 378.663 469.956
C 378.722 472.46 381.154 472.262 383.017 472.486
C 386.276 472.877 390.007 475.127 389.283 478.881
C 388.861 481.065 386.485 482.312 384.46 482.583
C 380.903 483.058 376.244 482.226 375.528 478.088 Z"
opacity="1" fill="rgb(235,234,249)" fill-rule="evenodd" />
<path d="
M 392.978 471.612
C 393.269 470.61 393.8 470.77 394.654 470.725
C 395.108 470.991 395.478 471.305 395.904 471.606
C 396.88 471.487 397.542 470.443 398.495 470.166
C 400.785 469.5 401.532 471.453 403.039 472.468
C 404.263 471.87 405.062 470.63 406.492 470.39
C 407.279 470.258 408.069 470.272 408.847 470.448
C 413.064 471.4 412.873 475.11 412.875 478.648
C 412.875 479.784 413.113 481.126 412.878 482.228
C 412.005 482.212 411.108 482.244 410.24 482.159
C 410.363 479.89 410.877 475.898 409.817 473.84
C 408.729 471.729 405.239 472.04 404.238 474.126
C 403.327 476.025 404.121 480.103 404.275 482.173
C 403.338 482.204 402.21 482.335 401.302 482.108
C 401.551 479.328 402.625 473.112 398.995 472.25
C 397.735 472.53 396.639 473.269 395.597 474.006
C 394.645 476.178 395.504 479.769 395.519 482.125
C 394.872 482.347 393.429 482.356 392.781 482.091
C 393.053 478.638 392.413 475.03 392.978 471.612 Z"
opacity="0.996" fill="rgb(242,235,246)" fill-rule="evenodd" />
<path d="
M 398.881 344.447
C 403.852 344.027 408.962 344.413 413.95 344.437
C 422.876 344.48 434.445 342.871 439.953 351.654
C 440.696 352.839 441.335 354.14 441.746 355.479
C 442.365 357.494 442.603 359.578 442.637 361.681
C 442.678 364.209 442.464 366.777 441.675 369.191
C 440.753 372.013 439.238 374.739 436.965 376.691
C 435.707 377.771 433.367 378.514 432.525 379.884
C 436.437 386.271 440.387 393.012 443.797 399.673
C 438.967 399.798 434.135 399.744 429.307 399.568
C 426.649 393.104 422.602 387.251 420.077 380.716
C 417.186 380.643 414.278 380.72 411.387 380.759
C 411.762 386.927 411.557 393.34 411.359 399.521
C 411.139 399.947 408.721 399.767 408.193 399.777
C 405.14 399.833 401.737 400.12 398.715 399.729
C 399.405 386.743 398.724 373.515 398.74 360.503
C 398.745 356.837 398.739 353.171 398.726 349.504
C 398.721 348.008 398.322 345.825 398.881 344.447 Z
M 411.502 356.591
C 411.379 360.051 411.552 363.537 411.577 366.999
C 411.584 367.887 411.229 369.908 411.959 370.459
C 415.123 370.438 418.289 370.517 421.453 370.557
C 423.44 370.582 425.755 370.721 427.459 369.528
C 431.426 366.751 431.316 359.003 427.314 356.329
C 424.301 354.317 418.952 355.267 415.506 355.327
C 414.292 355.348 412.696 355.108 411.563 355.542
C 411.555 356.357 411.592 356.009 411.502 356.591 Z"
opacity="1" fill="rgb(253,251,254)" fill-rule="evenodd" />
<path d="
M 415.951 478.106
C 417.625 474.543 421.734 475.173 424.913 475.179
C 425.754 471.51 420.429 472.229 418.602 473.191
C 418.111 473.45 416.774 474.216 416.329 473.755
C 416.766 469.513 422.964 469.112 425.713 471.292
C 427.885 473.016 427.388 475.819 427.443 478.317
C 427.458 479 428.047 482.042 427.493 482.423
C 426.736 482.561 425.969 482.669 425.199 482.681
C 425.225 481.895 425.279 481.314 424.447 481.26
C 423.447 481.735 422.56 482.46 421.436 482.642
C 418.455 483.125 415.645 481.312 415.951 478.106 Z
M 418.453 479.136
C 419.496 481.696 423.945 481.077 424.945 478.8
C 425.023 478.253 424.981 477.783 424.935 477.237
C 423.189 475.737 419.653 476.993 418.508 478.611
C 418.489 478.786 418.471 478.961 418.453 479.136 Z"
opacity="1" fill="rgb(244,241,251)" fill-rule="evenodd" />
<path d="
M 431.994 470.365
C 432.675 470.212 433.762 470.171 434.38 470.537
C 434.944 473.091 435.608 472.433 436.639 470.655
C 437.39 470.202 438.187 470.418 439.028 470.381
C 439.913 471.068 439.439 472.436 438.754 473.111
C 437.629 473.302 436.328 473.448 435.197 473.462
C 434.059 475.738 434.399 479.784 434.752 482.264
C 433.858 482.268 432.965 482.211 432.075 482.305
C 431.665 481.102 431.923 479.517 431.939 478.255
C 431.972 475.622 431.879 472.996 431.994 470.365 Z"
opacity="1" fill="rgb(235,217,241)" fill-rule="evenodd" />
<path d="
M 440.996 470.794
C 441.591 470.58 442.231 470.596 442.812 470.382
C 442.939 469.352 442.631 468.247 442.617 467.205
C 443.477 467.107 444.346 467.056 445.212 467.091
C 445.615 468.189 445.372 469.494 445.596 470.649
C 446.701 470.77 447.836 470.713 448.947 470.664
C 449.343 471.218 449.296 472.042 449.258 472.696
C 448.181 472.914 446.771 472.655 445.668 472.614
C 445.351 474.822 444.852 478.213 445.66 480.34
C 446.869 480.336 448.077 480.225 449.281 480.11
C 449.566 480.657 449.442 481.944 448.978 482.399
C 447.111 482.513 445.406 482.421 443.624 481.839
C 443.085 481.274 442.991 480.148 442.941 479.381
C 442.798 477.216 442.761 474.935 442.847 472.769
C 442.232 472.537 441.442 472.692 440.892 472.306
C 440.771 471.408 440.775 471.913 440.996 470.794 Z"
opacity="0.996" fill="rgb(250,247,252)" fill-rule="evenodd" />
<path d="
M 451.925 474.589
C 454.15 468.076 465.258 469.26 464.222 476.736
C 461.243 478.195 457.203 476.166 454.256 477.492
C 454.292 478.188 454.616 478.643 455.093 479.149
C 456.125 480.243 457.843 480.842 459.3 480.292
C 460.802 479.726 462.442 477.779 464.107 479.369
C 463.295 482.6 457.518 483.368 455.009 482.105
C 452.26 480.722 451.526 477.402 451.925 474.589 Z
M 454.46 474.582
C 454.241 475.175 454.16 474.945 454.498 475.312
C 456.165 475.316 457.812 475.348 459.481 475.278
C 460.08 475.253 461.016 475.447 461.488 475.002
C 461.263 470.772 456.002 472.352 454.46 474.582 Z"
opacity="1" fill="rgb(246,243,253)" fill-rule="evenodd" />
<path d="
M 458.397 344.479
C 463.723 344.085 469.166 344.372 474.508 344.375
C 481.76 344.378 489.055 344.203 496.298 344.514
C 496.02 348.03 497.002 352.049 496.236 355.486
C 493.594 355.859 490.679 355.503 488.006 355.503
C 482.178 355.505 476.34 355.41 470.518 355.629
C 470.51 358.288 470.586 360.946 470.639 363.608
C 470.658 364.57 470.354 366.182 470.945 366.948
C 478.293 366.474 485.906 366.691 493.258 366.993
C 493.148 370.272 494.061 374.412 493.226 377.591
C 490.426 378.009 487.338 377.707 484.506 377.719
C 479.937 377.74 475.346 377.895 470.782 377.842
C 470.149 380.213 470.538 383.253 470.57 385.706
C 470.585 386.834 470.426 388.048 470.87 389.099
C 479.348 388.407 487.979 389.551 496.483 389.087
C 496.828 389.814 496.6 390.946 496.578 391.717
C 496.507 394.14 496.089 397.34 496.678 399.678
C 483.882 399.862 471.014 399.207 458.222 399.717
C 458.844 381.489 458.544 363.021 458.258 344.78
C 458.304 344.68 458.351 344.579 458.397 344.479 Z"
opacity="1" fill="rgb(253,252,255)" fill-rule="evenodd" />
<path d="
M 468.004 473.12
C 468.153 472.334 468.119 471.51 468.166 470.712
C 468.739 470.16 469.819 470.393 470.564 470.355
C 470.962 470.915 470.823 471.848 471.064 472.51
C 472.246 472.31 472.417 470.982 473.195 470.233
C 474.092 469.933 475.05 469.811 475.762 470.522
C 475.878 471.221 476.031 471.986 475.581 472.588
C 474.344 473.479 471.704 473.164 470.867 474.429
C 470.686 477.035 470.925 479.646 470.813 482.244
C 469.894 482.299 468.979 482.206 468.062 482.281
C 467.783 481.22 468.092 479.794 468.113 478.688
C 468.149 476.828 467.972 474.97 468.004 473.12 Z"
opacity="1" fill="rgb(235,233,248)" fill-rule="evenodd" />
<path d="
M 476.9 479.996
C 477.64 479.232 478.376 479.213 479.387 479.289
C 480.211 480.105 480.129 481.277 479.734 482.29
C 479.099 482.906 477.82 482.432 477.201 482.021
C 476.968 481.32 476.843 480.737 476.9 479.996 Z"
opacity="0.996" fill="rgb(236,224,246)" fill-rule="evenodd" />

</svg>